<?xml version="1.0" encoding="UTF-8" standalone="no"?>
<svg
   xmlns:osb="http://www.openswatchbook.org/uri/2009/osb"
   xmlns:dc="http://purl.org/dc/elements/1.1/"
   xmlns:cc="http://creativecommons.org/ns#"
   xmlns:rdf="http://www.w3.org/1999/02/22-rdf-syntax-ns#"
   xmlns:svg="http://www.w3.org/2000/svg"
   xmlns="http://www.w3.org/2000/svg"
   xmlns:sodipodi="http://sodipodi.sourceforge.net/DTD/sodipodi-0.dtd"
   xmlns:inkscape="http://www.inkscape.org/namespaces/inkscape"
   width="744.094488189"
   height="1052.36220472"
   id="svg4136"
   version="1.1"
   inkscape:version="0.91 r13725"
   sodipodi:docname="MM.svg"
   inkscape:export-filename="C:\Users\M\Desktop\Design Portfolio Website\images\MM.png"
   inkscape:export-xdpi="90"
   inkscape:export-ydpi="90">
  <metadata
     id="metadata4453">
    <rdf:RDF>
      <cc:Work
         rdf:about="">
        <dc:format>image/svg+xml</dc:format>
        <dc:type
           rdf:resource="http://purl.org/dc/dcmitype/StillImage" />
        <dc:title></dc:title>
      </cc:Work>
    </rdf:RDF>
  </metadata>
  <sodipodi:namedview
     pagecolor="#ffffff"
     bordercolor="#666666"
     borderopacity="1"
     objecttolerance="10"
     gridtolerance="10"
     guidetolerance="10"
     inkscape:pageopacity="0"
     inkscape:pageshadow="2"
     inkscape:window-width="728"
     inkscape:window-height="832"
     id="namedview4451"
     showgrid="false"
     inkscape:zoom="4"
     inkscape:cx="197.39455"
     inkscape:cy="291.28471"
     inkscape:window-x="-7"
     inkscape:window-y="0"
     inkscape:window-maximized="0"
     inkscape:current-layer="g4155" />
  <desc
     id="desc4138">C:\Users\M\Desktop\M logos\Thinner\Thinner M.DXF - scale = 25.400000, origin = (0.000000, 0.000000), auto = False</desc>
  <defs
     id="defs4140">
    <linearGradient
       id="linearGradient4455"
       osb:paint="solid">
      <stop
         style="stop-color:#000000;stop-opacity:1;"
         offset="0"
         id="stop4457" />
    </linearGradient>
    <marker
       refY="0.0"
       refX="0.0"
       style="overflow:visible"
       id="DistanceX"
       orient="auto">
      <path
         style="stroke:#000000; stroke-width:0.5"
         d="M 3,-3 L -3,3 M 0,-5 L  0,5"
         id="path4143" />
    </marker>
    <pattern
       height="8"
       width="8"
       patternUnits="userSpaceOnUse"
       y="0"
       x="0"
       id="Hatch">
      <path
         linecap="square"
         stroke="#000000"
         stroke-width="0.25"
         d="M8 4 l-4,4"
         id="path4146" />
      <path
         linecap="square"
         stroke="#000000"
         stroke-width="0.25"
         d="M6 2 l-4,4"
         id="path4148" />
      <path
         linecap="square"
         stroke="#000000"
         stroke-width="0.25"
         d="M4 0 l-4,4"
         id="path4150" />
    </pattern>
    <symbol
       id="*Model_Space" />
    <symbol
       id="*Paper_Space" />
    <symbol
       id="*Paper_Space0" />
  </defs>
  <g
     inkscape:label="0"
     inkscape:groupmode="layer"
     id="g4155">
    <g
       id="g5177"
       style="fill:none;fill-opacity:1;stroke:#0000f7;stroke-width:0.89999998;stroke-miterlimit:4;stroke-dasharray:none;stroke-opacity:1"
       inkscape:export-xdpi="90"
       inkscape:export-ydpi="90"
       transform="matrix(1.5,0,0,1.5,-106.86251,-376.87873)">
      <path
         style="fill:none;fill-opacity:1;stroke:#0000f7;stroke-width:0.89999998;stroke-linecap:round;stroke-miterlimit:4;stroke-dasharray:none;stroke-opacity:1"
         d="m 163.74255,737.06036 -0.002,-7e-4 m 11.85819,34.884 c 0,-11.28657 0,-22.57313 0,-33.8597 m 0,33.8597 -0.002,-7e-4 m 1.52073,8.3015 -0.002,-7e-4 m 4.43234,1.3958 c 0,-0.23787 0,-0.47573 0,-0.7136 m 0,0 -0.002,-8e-4 m -17.80326,6.8042 c 5.93509,-2.02993 11.87017,-4.05987 17.80526,-6.0898 m -17.80526,6.0898 -0.002,-8e-4 m 17.80726,-6.089 -0.002,-7e-4 m 6.3022,-13.2086 c -4.18098,-12.01273 -8.36197,-24.02547 -12.54295,-36.0382 m 0,0 -0.002,-7e-4 m 14.81175,46.3181 c 0.19579,-0.067 0.39157,-0.13393 0.58736,-0.2009 m -0.58736,0.2009 -0.002,-7e-4 m 16.17945,-48.4738 -0.002,-7e-4 m 5.86717,-9.7328 c 0,-0.23787 0,-0.47573 0,-0.7136 m 0,0 -0.002,-8e-4 m -5.20868,6.1317 -0.002,-7e-4 m 5.21268,-5.4166 -0.002,-7e-4 m -5.94707,40.9738 c 0,-9.30717 0,-18.61433 0,-27.9215 m 0,0 -0.002,-7e-4 m -15.50419,44.9562 c 4.81002,-16.61467 9.62005,-33.22933 14.43007,-49.844 m -14.43007,49.844 -0.002,-7e-4 m 15.50819,-17.0333 -0.002,-7e-4 m 1.52912,8.2986 -0.002,-7e-4 m -43.99302,-33.4258 c 0,0.2379 0,0.4758 0,0.7137 m 5.94907,8.9822 c 0,9.30717 0,18.61433 0,27.9215 m -5.94907,13.0516 c 0,0.23787 0,0.47573 0,0.7136 m 0,0 c 5.93509,-2.0299 11.87017,-4.0598 17.80526,-6.0897 m 0,0 c 0,-0.2379 0,-0.4758 0,-0.7137 m -5.94907,-8.9822 c 0,-11.28827 0,-22.57653 0,-33.8648 m 0,0 c 4.83869,13.54353 9.67738,27.08707 14.51607,40.6306 m 0,0 c 0.19579,-0.067 0.39157,-0.13393 0.58736,-0.2009 m 0,0 c 4.81072,-16.6171 9.62144,-33.2342 14.43216,-49.8513 m 0,0 c 0,11.06153 0,22.12307 0,33.1846 m -5.91551,13.0402 c 0,0.23787 0,0.47573 0,0.7136 m 6.98954,-14.1211 c 0,-9.30717 0,-18.61433 0,-27.9215 m 5.94907,-13.0516 c 0,-0.2379 0,-0.4758 0,-0.7137 m 0,0 c -4.06954,1.39187 -8.13907,2.78373 -12.20861,4.1756 m 0,0 c -4.03317,14.82353 -8.06635,29.64707 -12.09952,44.4706 m 0,0 c -4.18141,-12.01397 -8.36283,-24.02793 -12.54424,-36.0419 m 0,0 c -3.85417,1.3182 -7.70834,2.6364 -11.56251,3.9546 m 48.41488,34.8238 c 0,-0.2379 0,-0.4758 0,-0.7137 m 0.002,0.7144 c 0,-0.2379 0,-0.4758 0,-0.7137 m 0,0 -0.002,-7e-4 m -12.9387,5.1389 c 4.31287,-1.47507 8.62574,-2.95013 12.93861,-4.4252 m -12.93652,4.426 -0.002,-8e-4 m 0.002,8e-4 c 4.31287,-1.4751 8.62574,-2.9502 12.93861,-4.4253 m 0,0 -0.002,-7e-4 m 51.55504,-34.1109 -0.002,8e-4 m -11.85628,34.8833 c 0,-11.28657 0,-22.57313 0,-33.8597 m 0.002,33.859 -0.002,7e-4 m -1.51673,8.3001 -0.002,7e-4 m 13.37483,7.4848 c -5.93509,-2.0299 -11.87018,-4.0598 -17.80527,-6.0897 m 17.80736,6.089 -0.002,8e-4 m -17.80536,-6.0898 c 0,-0.2379 0,-0.4758 0,-0.7137 m 0.002,0.713 -0.002,7e-4 m 0.002,-0.7144 -0.002,7e-4 m -6.30029,-12.4956 c 4.18099,-12.01273 8.36197,-24.02547 12.54296,-36.0382 m 0.002,-7e-4 -0.002,7e-4 m -14.80985,46.3174 c -0.19578,-0.067 -0.39157,-0.13393 -0.58735,-0.2009 m 0.58944,0.2002 -0.002,7e-4 m -16.17545,-48.4753 -0.002,8e-4 m -5.86526,-9.7335 c 0,-0.2379 0,-0.4758 0,-0.7137 m 0.002,-7e-4 -0.002,7e-4 m 5.21269,6.1303 -0.002,7e-4 m -5.20869,-5.418 -0.002,7e-4 m 5.94899,40.9731 c 0,-9.30717 0,-18.61433 0,-27.9215 m 0.002,-7e-4 -0.002,7e-4 m 15.5061,44.9555 c -4.81003,-16.6147 -9.62005,-33.2294 -14.43008,-49.8441 m 14.43217,49.8434 -0.002,7e-4 m -15.50419,-17.0347 -0.002,7e-4 m -1.52512,8.2972 -0.002,7e-4 m -4.42205,1.398 c 0,-0.2379 0,-0.4758 0,-0.7137 m 0.002,-7e-4 -0.002,7e-4 m 12.93852,5.1389 c -4.31287,-1.47507 -8.62574,-2.95013 -12.93861,-4.4252 m 12.9407,4.4245 -0.002,8e-4 m -12.93661,-4.426 -0.002,7e-4 m 48.41689,-34.8245 c 0,0.23787 0,0.47573 0,0.7136 m -11.56251,-4.6682 c 3.85417,1.3182 7.70834,2.6364 11.56251,3.9546 m -24.10675,32.0872 c 4.18141,-12.01393 8.36283,-24.02787 12.54424,-36.0418 m -24.64377,-8.4287 c 4.03318,14.8235 8.06635,29.647 12.09953,44.4705 m -24.30814,-48.6461 c 4.06954,1.39187 8.13907,2.78373 12.20861,4.1756 m -12.20861,-3.4619 c 0,-0.2379 0,-0.4758 0,-0.7137 m 5.94908,41.6868 c 0,-9.30717 0,-18.61433 0,-27.9215 m -5.94908,37.6174 c 0,-0.2379 0,-0.4758 0,-0.7137 m 12.93861,5.1389 c -4.31287,-1.47507 -8.62574,-2.95013 -12.93861,-4.4252 m 12.93861,3.7116 c 0,0.23787 0,0.47573 0,0.7136 m -5.91551,-46.9384 c 0,11.06153 0,22.12307 0,33.1846 m 14.43217,16.6667 c -4.81072,-16.6171 -9.62145,-33.2342 -14.43217,-49.8513 m 15.01952,50.0522 c -0.19578,-0.067 -0.39157,-0.13393 -0.58735,-0.2009 m 15.10343,-40.4297 c -4.83869,13.54353 -9.67739,27.08707 -14.51608,40.6306 m 14.51608,-6.7658 c 0,-11.28827 0,-22.57653 0,-33.8648 m -5.94908,43.5607 c 0,-0.2379 0,-0.4758 0,-0.7137 m 17.80527,6.8034 c -5.93509,-2.0299 -11.87018,-4.0598 -17.80527,-6.0897 m 17.80527,5.3761 c 0,0.23787 0,0.47573 0,0.7136 m -5.94907,-41.6867 c 0,9.30713 0,18.61427 0,27.9214 m -94.01885,-36.9022 c 0.95469,-0.22908 2.0237,-0.51528 2.99131,-0.1869 m 10.38361,43.371 c -1.83717,-2.28312 -1.35427,-5.57646 -1.51872,-8.3008 m 2.70865,9.0885 c -0.46451,-0.11996 -0.82408,-0.51334 -1.18995,-0.7878 m 29.17481,-50.0094 c 0.0864,-1.45161 0.19146,-2.927 0.65449,-4.3162 m -0.73839,7.6343 c -0.005,-1.10664 0.0224,-2.21315 0.0839,-3.3181 m 0.65449,-4.3162 c 0.78174,-2.52902 2.75297,-4.48097 5.21068,-5.4173 m -4.42195,49.271 c -1.84791,-2.2814 -1.36309,-5.57126 -1.52712,-8.2979 m 2.72498,9.1096 c -0.47345,-0.11756 -0.85058,-0.50174 -1.19789,-0.8118 m -43.99499,-32.7127 c 1.46151,-0.44093 3.27049,-0.60965 4.38838,0.6623 m 0,0 c 1.05188,0.94882 1.24622,2.41255 1.35931,3.7389 m 0,0 c 0.15521,1.52233 0.1946,3.0517 0.2014,4.581 m -2e-5,27.9215 c -0.0887,3.14516 0.11584,6.54261 -1.56068,9.354 m -1e-5,0 c -1.00744,1.68127 -2.58005,2.96027 -4.38838,3.6976 m 17.80526,-6.0898 c -1.48482,0.4633 -3.28212,0.56902 -4.43034,-0.6818 m 0,4e-4 c -1.83717,-2.28312 -1.35427,-5.57646 -1.51872,-8.3008 m 29.53558,-10.1018 c -0.0732,3.14135 0.11034,6.51457 -1.51872,9.3397 m -1e-5,0 c -0.93189,1.75983 -2.55798,2.99954 -4.39678,3.7005 m 12.93861,-4.4253 c -1.47443,0.43728 -3.3087,0.62242 -4.42195,-0.6842 m 0,-10e-5 c -1.8479,-2.28145 -1.3631,-5.57123 -1.52712,-8.2979 m 0,-27.9215 c -0.005,-1.10664 0.0224,-2.21315 0.0839,-3.3181 m 0,0 c 0.0864,-1.45161 0.19145,-2.927 0.65448,-4.3162 m 0,0 c 0.78178,-2.529 2.75293,-4.48104 5.21069,-5.4173 m 51.55304,16.5589 c -0.95471,-0.22901 -2.02368,-0.51547 -2.99131,-0.187 m -10.38361,43.3711 c 1.83717,-2.28313 1.35427,-5.57645 1.51872,-8.3008 m -2.78553,9.1105 c 0.49541,-0.11305 0.88513,-0.50824 1.26681,-0.8098 m -29.1748,-50.0094 c -0.0864,-1.45161 -0.19145,-2.927 -0.65448,-4.3162 m 0.73839,7.6343 c 0.005,-1.10664 -0.0224,-2.21315 -0.0839,-3.3181 m -0.65449,-4.3162 c -0.78177,-2.529 -2.75293,-4.48104 -5.21069,-5.4173 m 4.42195,49.271 c 1.84792,-2.28145 1.3631,-5.57123 1.52712,-8.2979 m -2.80191,9.1314 c 0.50337,-0.11259 0.91261,-0.49519 1.27479,-0.8338 m 0.79083,-43.8541 c -0.78174,-2.52898 -2.75289,-4.48114 -5.21069,-5.4173 m 5.86517,9.7334 c -0.0864,-1.45157 -0.19146,-2.92693 -0.65448,-4.3161 m 0.73839,7.6343 c 0.005,-1.10668 -0.0224,-2.21322 -0.0839,-3.3182 m -1.44322,39.5376 c 1.84788,-2.28146 1.3631,-5.57123 1.52711,-8.2979 m -2.80191,9.1314 c 0.50337,-0.11259 0.91261,-0.49519 1.2748,-0.8338 m -4.42196,0.6846 c 0.99088,0.24136 2.09717,0.52299 3.09737,0.1638 m 5.44446,0.561 c 0.93187,1.75988 2.55802,2.99945 4.39678,3.7005 m -5.91551,-13.0402 c 0.0732,3.14135 -0.11033,6.51456 1.51873,9.3397 m 26.49814,9.0629 c 1.83713,-2.28317 1.3543,-5.57643 1.51872,-8.3008 m -2.78553,9.1105 c 0.49541,-0.11305 0.88513,-0.50824 1.26681,-0.8098 m -4.43035,0.6815 c 0.99707,0.25546 2.10905,0.51481 3.11379,0.1426 m 10.3031,2.2496 c 1.00751,1.68124 2.58002,2.96027 4.38838,3.6976 m -5.94907,-13.0517 c 0.0888,3.14519 -0.11585,6.54268 1.56068,9.3541 m -1.3593,-41.8565 c -0.15521,1.52233 -0.1946,3.0517 -0.2014,4.581 m 1.56071,-8.3199 c -1.05194,0.94873 -1.2462,2.4126 -1.35931,3.7389 m 2.62986,-4.5515 c -0.497,0.11403 -0.91,0.47579 -1.27055,0.8121 m 4.38838,-0.6619 c -0.95613,-0.22926 -2.02675,-0.51601 -2.99555,-0.1857"
         id="path4441"
         inkscape:connector-curvature="0" />
    </g>
    <path
       style="fill:#000080;fill-opacity:1;stroke:#0000e6;stroke-width:0.35355338;stroke-opacity:1"
       d=""
       id="path6331"
       inkscape:connector-curvature="0" />
  </g>
</svg>
