<?xml version="1.0" encoding="utf-8"?>
<!-- Generator: Adobe Illustrator 22.1.0, SVG Export Plug-In . SVG Version: 6.00 Build 0)  -->
<svg version="1.1" id="svg4136" xmlns="http://www.w3.org/2000/svg" xmlns:xlink="http://www.w3.org/1999/xlink" x="0px" y="0px"
	 viewBox="0 0 176.1 119.7" style="enable-background:new 0 0 176.1 119.7;" xml:space="preserve">
<style type="text/css">
	.st0{fill:#FFFFFF;stroke:#000000;stroke-miterlimit:10;}
</style>
<g>
	<title>MMFix</title>
	<g id="g4155">
		<path id="path4157" class="st0" d="M176,30.4c-0.5-0.1-1.1-0.3-1.6-0.4c-0.5-0.1-1.1-0.2-1.6-0.2c-0.5,0-1,0-1.5,0.1
			c-0.2,0-0.4,0.1-0.6,0.2"/>
		<path id="path4159" class="st0" d="M170.5,30.2c-0.1,0-0.2,0.1-0.3,0.1c-0.4,0.1-0.7,0.3-1,0.6c-0.3,0.2-0.6,0.5-0.9,0.8"/>
		<path id="path4161" class="st0" d="M168.3,31.6c-0.3,0.4-0.7,0.7-1,1.1c-0.3,0.4-0.5,0.9-0.7,1.4c-0.2,0.6-0.3,1.1-0.5,1.8
			s-0.2,1.5-0.3,2.3"/>
		<path id="path4163" class="st0" d="M165.9,38.2c-0.1,0.6-0.1,1.2-0.1,1.8c0,0.6-0.1,1.3-0.1,1.9c0,0.7,0,1.4-0.1,2.1v2.3"/>
		<path id="path4165" class="st0" d="M165.5,95.4v3.2c0,0.9,0,1.9,0.1,2.8c0,0.8,0.1,1.6,0.2,2.4c0.1,0.7,0.2,1.3,0.3,2
			c0.1,0.6,0.2,1.1,0.4,1.7c0.1,0.5,0.3,1.1,0.5,1.6l0.6,1.5c0.2,0.5,0.5,0.9,0.7,1.3"/>
		<path id="path4167" class="st0" d="M168.3,111.8l1.5,2.1c0.5,0.6,1.2,1.3,1.8,1.8c0.7,0.6,1.4,1.1,2.1,1.5
			c0.8,0.5,1.6,0.8,2.3,1.2"/>
		<path id="path4169" class="st0" d="M144.7,107.6c0.5,0.1,1.1,0.3,1.6,0.4c0.5,0.1,1.1,0.2,1.6,0.2c0.5,0,1,0,1.5-0.1
			c0.3-0.1,0.5-0.1,0.8-0.2"/>
		<path id="path4171" class="st0" d="M150.2,107.9c0.1,0,0.2,0,0.3-0.1c0.4-0.1,0.7-0.3,1-0.6c0.3-0.2,0.6-0.5,0.9-0.8"/>
		<path id="path4173" class="st0" d="M152.5,106.4c0.2-0.3,0.5-0.6,0.7-0.9c0.2-0.4,0.4-0.7,0.6-1.1c0.2-0.4,0.3-0.8,0.5-1.3
			l0.3-1.5l0.3-1.8c0.1-0.7,0.1-1.5,0.2-2.3c0.1-0.9,0.1-1.8,0.1-2.7v-3.2"/>
		<path id="path4175" class="st0" d="M103.2,74.1v3.2c0,0.9,0.1,1.9,0.1,2.8c0,0.8,0.1,1.6,0.2,2.4c0.1,0.7,0.2,1.3,0.3,2
			c0.1,0.6,0.2,1.1,0.4,1.7c0.1,0.5,0.3,1.1,0.5,1.6l0.6,1.5c0.2,0.5,0.5,0.9,0.7,1.4"/>
		<path id="path4177" class="st0" d="M105.8,90.5c0.2,0.4,0.5,0.8,0.7,1.2c0.2,0.4,0.5,0.7,0.8,1c0.3,0.3,0.5,0.6,0.8,0.9
			c0.3,0.3,0.6,0.6,0.9,0.8c0.3,0.3,0.6,0.5,0.9,0.7c0.4,0.2,0.7,0.5,1.1,0.7c0.4,0.2,0.8,0.4,1.2,0.6c0.4,0.2,0.9,0.4,1.3,0.6"/>
		<path id="path4179" class="st0" d="M90.8,89.2c0.5,0.1,1.1,0.3,1.6,0.4c0.5,0.1,1.1,0.2,1.6,0.2c0.5,0,1,0,1.5-0.1
			c0.3-0.1,0.5-0.1,0.8-0.2"/>
		<path id="path4181" class="st0" d="M96.3,89.5c0.1,0,0.2,0,0.3-0.1c0.4-0.1,0.7-0.3,1-0.6c0.3-0.2,0.6-0.5,0.9-0.8"/>
		<path id="path4183" class="st0" d="M98.6,88c0.2-0.3,0.5-0.6,0.7-0.9c0.2-0.4,0.4-0.7,0.6-1.1c0.2-0.4,0.3-0.8,0.5-1.3l0.3-1.5
			l0.3-1.8c0.1-0.7,0.1-1.5,0.2-2.3c0.1-0.9,0.1-1.8,0.1-2.7v-3.2"/>
		<path id="path4185" class="st0" d="M101.3,24.3v-3c0-0.9-0.1-1.9-0.1-2.8"/>
		<path id="path4187" class="st0" d="M101.1,18.4c0-0.8-0.1-1.6-0.2-2.4c-0.1-0.7-0.2-1.4-0.3-2l-0.3-1.8c-0.1-0.5-0.3-1-0.4-1.4"/>
		<path id="path4189" class="st0" d="M100,10.8c-0.2-0.6-0.4-1.2-0.7-1.7c-0.2-0.5-0.5-1-0.8-1.5c-0.3-0.5-0.6-0.9-0.9-1.4
			s-0.7-0.8-1-1.2s-0.8-0.7-1.2-1.1c-0.4-0.4-0.9-0.7-1.4-1L92.5,2c-0.6-0.3-1.1-0.5-1.7-0.8"/>
		<path id="path4191" class="st0" d="M96.3,89.5c0.1,0,0.2,0,0.3-0.1c0.4-0.1,0.7-0.3,1-0.6c0.3-0.2,0.6-0.5,0.9-0.8"/>
		<path id="path4193" class="st0" d="M98.6,88c0.2-0.3,0.5-0.6,0.7-0.9c0.2-0.4,0.4-0.7,0.6-1.1c0.2-0.4,0.3-0.8,0.5-1.3l0.3-1.5
			l0.3-1.8c0.1-0.7,0.1-1.5,0.2-2.3c0.1-0.9,0.1-1.8,0.1-2.7v-3.2"/>
		<path id="path4195" class="st0" d="M100,10.8c-0.2-0.6-0.4-1.2-0.7-1.7c-0.2-0.5-0.5-1-0.8-1.5c-0.3-0.5-0.6-0.9-0.9-1.4
			s-0.7-0.8-1-1.2s-0.8-0.7-1.2-1.1c-0.4-0.4-0.9-0.7-1.4-1L92.5,2c-0.6-0.3-1.1-0.5-1.7-0.8"/>
		<path id="path4197" class="st0" d="M101.3,24.3v-3c0-0.9-0.1-1.9-0.1-2.8"/>
		<path id="path4199" class="st0" d="M101.1,18.4c0-0.8-0.1-1.6-0.2-2.4c-0.1-0.7-0.2-1.4-0.3-2l-0.3-1.8c-0.1-0.5-0.3-1-0.4-1.4"/>
		<path id="path4201" class="st0" d="M150.2,107.9c0.1,0,0.2,0,0.3-0.1c0.4-0.1,0.7-0.3,1-0.6c0.3-0.2,0.6-0.5,0.9-0.8"/>
		<path id="path4203" class="st0" d="M152.5,106.4c0.2-0.3,0.5-0.6,0.7-0.9c0.2-0.4,0.4-0.7,0.6-1.1c0.2-0.4,0.3-0.8,0.5-1.3
			l0.3-1.5l0.3-1.8c0.1-0.7,0.1-1.5,0.2-2.3c0.1-0.9,0.1-1.8,0.1-2.7v-3.2"/>
		<path id="path4205" class="st0" d="M176,30.4c-0.5-0.1-1.1-0.3-1.6-0.4c-0.5-0.1-1.1-0.2-1.6-0.2c-0.5,0-1,0-1.5,0.1
			c-0.2,0-0.4,0.1-0.6,0.2"/>
		<path id="path4207" class="st0" d="M76.1,10.8c0.2-0.6,0.4-1.2,0.7-1.7c0.2-0.5,0.5-1,0.8-1.5c0.3-0.5,0.6-0.9,0.9-1.4
			s0.7-0.8,1-1.2s0.8-0.7,1.2-1.1c0.4-0.4,0.9-0.7,1.4-1L83.6,2c0.6-0.3,1.1-0.5,1.7-0.8"/>
		<path id="path4209" class="st0" d="M75,18.4c0-0.8,0.1-1.6,0.2-2.4c0.1-0.7,0.2-1.4,0.3-2l0.3-1.8c0.1-0.5,0.3-1,0.4-1.4"/>
		<path id="path4211" class="st0" d="M74.8,24.3v-3c0-0.9,0.1-1.9,0.1-2.8"/>
		<path id="path4213" class="st0" d="M77.5,88c-0.2-0.3-0.5-0.6-0.7-0.9c-0.2-0.4-0.4-0.7-0.6-1.1c-0.2-0.4-0.3-0.8-0.5-1.3
			l-0.3-1.5l-0.3-1.8c-0.1-0.7-0.1-1.5-0.2-2.3c-0.1-0.9-0.1-1.8-0.1-2.7v-3.2"/>
		<path id="path4215" class="st0" d="M85.3,89.2l-1.4,0.3c-0.4,0.1-0.8,0.1-1.2,0.2s-0.7,0.1-1.1,0.1c-0.3,0-0.6,0-0.9-0.1
			c-0.3,0-0.6-0.1-0.9-0.2c-0.3-0.1-0.6-0.2-0.8-0.4c-0.3-0.1-0.6-0.3-0.8-0.5c-0.3-0.2-0.5-0.4-0.7-0.7"/>
		<path id="path4217" class="st0" d="M70.2,90.5c-0.2,0.4-0.5,0.8-0.7,1.2c-0.2,0.4-0.5,0.7-0.8,1c-0.3,0.3-0.5,0.6-0.8,0.9
			c-0.3,0.3-0.6,0.6-0.9,0.8c-0.3,0.3-0.6,0.5-0.9,0.7c-0.4,0.2-0.7,0.5-1.1,0.7c-0.4,0.2-0.8,0.4-1.2,0.6c-0.4,0.2-0.9,0.4-1.3,0.6
			"/>
		<path id="path4219" class="st0" d="M72.9,74.1v3.2c0,0.9-0.1,1.9-0.1,2.8c0,0.8-0.1,1.6-0.2,2.4c-0.1,0.7-0.2,1.3-0.3,2
			c-0.1,0.6-0.2,1.1-0.4,1.7c-0.1,0.5-0.3,1.1-0.5,1.6l-0.6,1.5c-0.2,0.5-0.5,0.9-0.7,1.4"/>
		<path id="path4221" class="st0" d="M23.6,106.4c-0.2-0.3-0.5-0.6-0.7-0.9c-0.2-0.4-0.4-0.7-0.6-1.1c-0.2-0.4-0.3-0.8-0.5-1.3
			l-0.3-1.5l-0.3-1.8c-0.1-0.7-0.1-1.5-0.2-2.3c-0.1-0.9-0.1-1.8-0.1-2.7v-3.2"/>
		<path id="path4223" class="st0" d="M31.4,107.6l-1.4,0.3c-0.4,0.1-0.8,0.1-1.2,0.2s-0.7,0.1-1.1,0.1c-0.3,0-0.6,0-0.9-0.1
			c-0.6-0.1-1.2-0.3-1.7-0.6c-0.5-0.3-1-0.7-1.5-1.1"/>
		<path id="path4225" class="st0" d="M7.8,111.9L6.3,114c-0.5,0.6-1.2,1.3-1.8,1.8c-0.7,0.6-1.4,1.1-2.1,1.5
			c-0.8,0.5-1.6,0.8-2.3,1.2"/>
		<path id="path4227" class="st0" d="M10.5,95.4v3.2c0,0.9,0,1.9-0.1,2.8c0,0.8-0.1,1.6-0.2,2.4c-0.1,0.7-0.2,1.3-0.3,2
			c-0.1,0.6-0.2,1.1-0.4,1.7c-0.1,0.5-0.3,1.1-0.5,1.6l-0.6,1.5c-0.2,0.5-0.5,0.9-0.7,1.3"/>
		<path id="path4229" class="st0" d="M10.2,38.2c0.1,0.6,0.1,1.2,0.1,1.8c0,0.6,0.1,1.3,0.1,1.9c0,0.7,0,1.4,0.1,2.1v2.3"/>
		<path id="path4231" class="st0" d="M7.8,31.6c0.3,0.4,0.7,0.7,1,1.1c0.3,0.4,0.5,0.9,0.7,1.4c0.2,0.6,0.3,1.1,0.5,1.8
			s0.2,1.5,0.3,2.3"/>
		<path id="path4233" class="st0" d="M0.1,30.4l1.3-0.3C1.8,30,2.2,30,2.6,29.9s0.7-0.1,1.1-0.1c0.3,0,0.6,0,0.9,0.1
			C4.9,30,5.2,30,5.5,30.1s0.5,0.2,0.8,0.3c0.2,0.2,0.5,0.4,0.8,0.6c0.3,0.2,0.5,0.4,0.7,0.7"/>
		<path id="path4235" class="st0" d="M79.6,89.4L79.6,89.4c-0.5-0.1-0.8-0.3-1.1-0.6c-0.3-0.2-0.6-0.5-0.9-0.8"/>
		<path id="path4237" class="st0" d="M77.5,88c-0.2-0.3-0.5-0.6-0.7-0.9c-0.2-0.4-0.4-0.7-0.6-1.1c-0.2-0.4-0.3-0.8-0.5-1.3
			l-0.3-1.5l-0.3-1.8c-0.1-0.7-0.1-1.5-0.2-2.3c-0.1-0.9-0.1-1.8-0.1-2.7v-3.2"/>
		<path id="path4239" class="st0" d="M76.1,10.8c0.2-0.6,0.4-1.2,0.7-1.7c0.2-0.5,0.5-1,0.8-1.5c0.3-0.5,0.6-0.9,0.9-1.4
			s0.7-0.8,1-1.2s0.8-0.7,1.2-1.1c0.4-0.4,0.9-0.7,1.4-1L83.6,2c0.6-0.3,1.1-0.5,1.7-0.8"/>
		<path id="path4241" class="st0" d="M74.8,24.3v-3c0-0.9,0.1-1.9,0.1-2.8"/>
		<path id="path4243" class="st0" d="M75,18.4c0-0.8,0.1-1.6,0.2-2.4c0.1-0.7,0.2-1.4,0.3-2l0.3-1.8c0.1-0.5,0.3-1,0.4-1.4"/>
		<path id="path4245" class="st0" d="M25.7,107.8h-0.1c-0.4-0.1-0.7-0.3-1-0.6c-0.3-0.2-0.6-0.5-0.9-0.8"/>
		<path id="path4247" class="st0" d="M23.6,106.4c-0.2-0.3-0.5-0.6-0.7-0.9c-0.2-0.4-0.4-0.7-0.6-1.1c-0.2-0.4-0.3-0.8-0.5-1.3
			l-0.3-1.5l-0.3-1.8c-0.1-0.7-0.1-1.5-0.2-2.3c-0.1-0.9-0.1-1.8-0.1-2.7v-3.2"/>
		<path id="path4249" class="st0" d="M0.1,30.4c0.5-0.1,1.1-0.3,1.6-0.4c0.5-0.1,1.1-0.2,1.6-0.2c0.5,0,1,0,1.5,0.1
			c0.2,0,0.4,0.1,0.6,0.2"/>
		<path id="path4251" class="st0" d="M165.5,46.2v49.1"/>
		<path id="path4253" class="st0" d="M176,118.4v1.3"/>
		<path id="path4255" class="st0" d="M176,119.6l-31.3-10.7"/>
		<path id="path4257" class="st0" d="M144.7,108.9v-1.3"/>
		<path id="path4259" class="st0" d="M155.1,91.8V32.2"/>
		<path id="path4261" class="st0" d="M155.1,32.2l-25.5,71.5"/>
		<path id="path4263" class="st0" d="M129.6,103.7l-1-0.4"/>
		<path id="path4265" class="st0" d="M128.6,103.4l-25.4-87.7"/>
		<path id="path4267" class="st0" d="M103.2,15.6V74"/>
		<path id="path4269" class="st0" d="M113.6,97v1.3"/>
		<path id="path4271" class="st0" d="M113.6,98.3l-22.8-7.8"/>
		<path id="path4273" class="st0" d="M90.8,90.5v-1.3"/>
		<path id="path4275" class="st0" d="M101.3,73.4V24.3"/>
		<path id="path4277" class="st0" d="M90.8,1.3V0"/>
		<path id="path4279" class="st0" d="M90.8,0l21.5,7.3"/>
		<path id="path4281" class="st0" d="M112.3,7.4l21.3,78.3"/>
		<path id="path4283" class="st0" d="M133.6,85.7l22.1-63.4"/>
		<path id="path4285" class="st0" d="M155.7,22.2l20.4,7"/>
		<path id="path4287" class="st0" d="M176,29.2v1.3"/>
		<path id="path4289" class="st0" d="M90.8,90.5L90.8,90.5"/>
		<path id="path4291" class="st0" d="M113.6,98.3L113.6,98.3"/>
		<path id="path4293" class="st0" d="M113.6,98.3l-22.8-7.8"/>
		<path id="path4295" class="st0" d="M90.8,89.2L90.8,89.2"/>
		<path id="path4297" class="st0" d="M90.8,90.5v-1.3"/>
		<path id="path4299" class="st0" d="M98.6,88L98.6,88"/>
		<path id="path4301" class="st0" d="M101.3,73.4L101.3,73.4"/>
		<path id="path4303" class="st0" d="M128.6,103.4L128.6,103.4"/>
		<path id="path4305" class="st0" d="M128.6,103.4l-25.4-87.7"/>
		<path id="path4307" class="st0" d="M101.3,24.3L101.3,24.3"/>
		<path id="path4309" class="st0" d="M101.3,73.4V24.3"/>
		<path id="path4311" class="st0" d="M90.8,1.3L90.8,1.3"/>
		<path id="path4313" class="st0" d="M100,10.8L100,10.8"/>
		<path id="path4315" class="st0" d="M90.8,0L90.8,0"/>
		<path id="path4317" class="st0" d="M90.8,1.3V0"/>
		<path id="path4319" class="st0" d="M101.1,18.4L101.1,18.4"/>
		<path id="path4321" class="st0" d="M129.6,103.7L129.6,103.7"/>
		<path id="path4323" class="st0" d="M129.6,103.7l-1-0.4"/>
		<path id="path4325" class="st0" d="M155.7,22.2L155.7,22.2"/>
		<path id="path4327" class="st0" d="M133.6,85.6l22.1-63.4"/>
		<path id="path4329" class="st0" d="M144.7,107.6L144.7,107.6"/>
		<path id="path4331" class="st0" d="M144.7,108.9L144.7,108.9"/>
		<path id="path4333" class="st0" d="M144.7,108.9v-1.3"/>
		<path id="path4335" class="st0" d="M176,119.6L176,119.6"/>
		<path id="path4337" class="st0" d="M176,119.6l-31.3-10.7"/>
		<path id="path4339" class="st0" d="M152.5,106.4L152.5,106.4"/>
		<path id="path4341" class="st0" d="M155.1,91.8L155.1,91.8"/>
		<path id="path4343" class="st0" d="M155.1,91.8V32.2"/>
		<path id="path4345" class="st0" d="M176,30.4L176,30.4"/>
		<path id="path4347" class="st0" d="M85.3,90.5L85.3,90.5"/>
		<path id="path4349" class="st0" d="M62.5,98.3l22.8-7.8"/>
		<path id="path4351" class="st0" d="M62.5,98.3L62.5,98.3"/>
		<path id="path4353" class="st0" d="M62.5,98.3l22.8-7.8"/>
		<path id="path4355" class="st0" d="M85.3,89.2L85.3,89.2"/>
		<path id="path4357" class="st0" d="M85.3,90.5v-1.3"/>
		<path id="path4359" class="st0" d="M85.3,90.5v-1.3"/>
		<path id="path4361" class="st0" d="M20.4,22.2L0,29.2"/>
		<path id="path4363" class="st0" d="M42.5,85.7L20.4,22.2"/>
		<path id="path4365" class="st0" d="M63.8,7.4L42.5,85.7"/>
		<path id="path4367" class="st0" d="M85.3,0L63.8,7.3"/>
		<path id="path4369" class="st0" d="M85.3,1.3V0"/>
		<path id="path4371" class="st0" d="M74.8,73.4V24.3"/>
		<path id="path4373" class="st0" d="M62.5,97v1.3"/>
		<path id="path4375" class="st0" d="M72.9,15.6V74"/>
		<path id="path4377" class="st0" d="M47.5,103.4l25.4-87.7"/>
		<path id="path4379" class="st0" d="M46.5,103.7l1-0.4"/>
		<path id="path4381" class="st0" d="M20.9,32.2l25.6,71.5"/>
		<path id="path4383" class="st0" d="M20.9,91.8V32.2"/>
		<path id="path4385" class="st0" d="M31.4,108.9v-1.3"/>
		<path id="path4387" class="st0" d="M0.1,119.6l31.3-10.7"/>
		<path id="path4389" class="st0" d="M0.1,118.4v1.3"/>
		<path id="path4391" class="st0" d="M10.5,46.2v49.1"/>
		<path id="path4393" class="st0" d="M0.1,29.2v1.3"/>
		<path id="path4395" class="st0" d="M77.5,88L77.5,88"/>
		<path id="path4397" class="st0" d="M74.8,73.4L74.8,73.4"/>
		<path id="path4399" class="st0" d="M47.5,103.4L47.5,103.4"/>
		<path id="path4401" class="st0" d="M47.5,103.4l25.4-87.7"/>
		<path id="path4403" class="st0" d="M74.8,24.3L74.8,24.3"/>
		<path id="path4405" class="st0" d="M74.8,73.4V24.3"/>
		<path id="path4407" class="st0" d="M85.3,1.3L85.3,1.3"/>
		<path id="path4409" class="st0" d="M76.1,10.8L76.1,10.8"/>
		<path id="path4411" class="st0" d="M85.3,0L85.3,0"/>
		<path id="path4413" class="st0" d="M85.3,1.3V0"/>
		<path id="path4415" class="st0" d="M75,18.4L75,18.4"/>
		<path id="path4417" class="st0" d="M46.5,103.7L46.5,103.7"/>
		<path id="path4419" class="st0" d="M46.5,103.7l1-0.4"/>
		<path id="path4421" class="st0" d="M20.4,22.2L20.4,22.2"/>
		<path id="path4423" class="st0" d="M42.5,85.6L20.4,22.2"/>
		<path id="path4425" class="st0" d="M31.4,108.9L31.4,108.9"/>
		<path id="path4427" class="st0" d="M0.1,119.6L0.1,119.6"/>
		<path id="path4429" class="st0" d="M0.1,119.6l31.3-10.7"/>
		<path id="path4431" class="st0" d="M31.4,107.6L31.4,107.6"/>
		<path id="path4433" class="st0" d="M31.4,108.9v-1.3"/>
		<path id="path4435" class="st0" d="M23.6,106.4L23.6,106.4"/>
		<path id="path4437" class="st0" d="M20.9,91.8L20.9,91.8"/>
		<path id="path4439" class="st0" d="M20.9,91.8V32.2"/>
		<path id="path4441" class="st0" d="M0.1,30.4L0.1,30.4"/>
		<path id="path6331" class="st0" d="M-180.5-1322.8"/>
	</g>
</g>
</svg>
