  0
SECTION
  2
HEADER
  9
$ACADVER
  1
AC1015
  9
$ACADMAINTVER
 70
     6
  9
$DWGCODEPAGE
  3
ANSI_1252
  9
$INSBASE
 10
0.0
 20
0.0
 30
0.0
  9
$EXTMIN
 10
-16.9036907828
 20
-5.781644589
 30
0.0
  9
$EXTMAX
 10
16.9043978896
 20
17.195450966
 30
0.0
  9
$LIMMIN
 10
0.0
 20
0.0
  9
$LIMMAX
 10
420.0
 20
297.0
  9
$ORTHOMODE
 70
     0
  9
$REGENMODE
 70
     1
  9
$FILLMODE
 70
     1
  9
$QTEXTMODE
 70
     0
  9
$MIRRTEXT
 70
     1
  9
$LTSCALE
 40
1.0
  9
$ATTMODE
 70
     1
  9
$TEXTSIZE
 40
3.5
  9
$TRACEWID
 40
1.0
  9
$TEXTSTYLE
  7
Standard
  9
$CLAYER
  8
0
  9
$CELTYPE
  6
ByLayer
  9
$CECOLOR
 62
   256
  9
$CELTSCALE
 40
1.0
  9
$DISPSILH
 70
     0
  9
$DIMSCALE
 40
1.0
  9
$DIMASZ
 40
3.302
  9
$DIMEXO
 40
1.0
  9
$DIMDLI
 40
3.75
  9
$DIMRND
 40
0.0
  9
$DIMDLE
 40
0.0
  9
$DIMEXE
 40
1.0
  9
$DIMTP
 40
0.0
  9
$DIMTM
 40
0.0
  9
$DIMTXT
 40
3.5
  9
$DIMCEN
 40
2.5
  9
$DIMTSZ
 40
0.0
  9
$DIMTOL
 70
     0
  9
$DIMLIM
 70
     0
  9
$DIMTIH
 70
     1
  9
$DIMTOH
 70
     1
  9
$DIMSE1
 70
     0
  9
$DIMSE2
 70
     0
  9
$DIMTAD
 70
     1
  9
$DIMZIN
 70
     0
  9
$DIMBLK
  1

  9
$DIMASO
 70
     1
  9
$DIMSHO
 70
     1
  9
$DIMPOST
  1

  9
$DIMAPOST
  1

  9
$DIMALT
 70
     0
  9
$DIMALTD
 70
     3
  9
$DIMALTF
 40
0.0393700787
  9
$DIMLFAC
 40
1.0
  9
$DIMTOFL
 70
     1
  9
$DIMTVP
 40
0.0
  9
$DIMTIX
 70
     0
  9
$DIMSOXD
 70
     0
  9
$DIMSAH
 70
     0
  9
$DIMBLK1
  1

  9
$DIMBLK2
  1

  9
$DIMSTYLE
  2
ISO-25
  9
$DIMCLRD
 70
     0
  9
$DIMCLRE
 70
     0
  9
$DIMCLRT
 70
     0
  9
$DIMTFAC
 40
1.0
  9
$DIMGAP
 40
1.524
  9
$DIMJUST
 70
     0
  9
$DIMSD1
 70
     0
  9
$DIMSD2
 70
     0
  9
$DIMTOLJ
 70
     0
  9
$DIMTZIN
 70
     0
  9
$DIMALTZ
 70
     0
  9
$DIMALTTZ
 70
     0
  9
$DIMUPT
 70
     0
  9
$DIMDEC
 70
     2
  9
$DIMTDEC
 70
     2
  9
$DIMALTU
 70
     2
  9
$DIMALTTD
 70
     3
  9
$DIMTXSTY
  7
Standard
  9
$DIMAUNIT
 70
     0
  9
$DIMADEC
 70
     2
  9
$DIMALTRND
 40
0.0
  9
$DIMAZIN
 70
     0
  9
$DIMDSEP
 70
    44
  9
$DIMATFIT
 70
     3
  9
$DIMFRAC
 70
     0
  9
$DIMLDRBLK
  1

  9
$DIMLUNIT
 70
     2
  9
$DIMLWD
 70
    -2
  9
$DIMLWE
 70
    -2
  9
$DIMTMOVE
 70
     0
  9
$LUNITS
 70
     2
  9
$LUPREC
 70
     6
  9
$SKETCHINC
 40
1.0
  9
$FILLETRAD
 40
10.0
  9
$AUNITS
 70
     0
  9
$AUPREC
 70
     2
  9
$MENU
  1
.
  9
$ELEVATION
 40
0.0
  9
$PELEVATION
 40
0.0
  9
$THICKNESS
 40
0.0
  9
$LIMCHECK
 70
     0
  9
$CHAMFERA
 40
0.0
  9
$CHAMFERB
 40
0.0
  9
$CHAMFERC
 40
0.0
  9
$CHAMFERD
 40
0.0
  9
$SKPOLY
 70
     0
  9
$TDCREATE
 40
2458046.594540567
  9
$TDUCREATE
 40
2458046.761207234
  9
$TDUPDATE
 40
2458046.594848993
  9
$TDUUPDATE
 40
2458046.76151566
  9
$TDINDWG
 40
0.0000000116
  9
$TDUSRTIMER
 40
0.0000000116
  9
$USRTIMER
 70
     1
  9
$ANGBASE
 50
0.0
  9
$ANGDIR
 70
     0
  9
$PDMODE
 70
     0
  9
$PDSIZE
 40
-1.0
  9
$PLINEWID
 40
0.0
  9
$SPLFRAME
 70
     0
  9
$SPLINETYPE
 70
     6
  9
$SPLINESEGS
 70
     8
  9
$HANDSEED
  5
165
  9
$SURFTAB1
 70
     6
  9
$SURFTAB2
 70
     6
  9
$SURFTYPE
 70
     6
  9
$SURFU
 70
     6
  9
$SURFV
 70
     6
  9
$UCSBASE
  2

  9
$UCSNAME
  2

  9
$UCSORG
 10
0.0
 20
0.0
 30
0.0
  9
$UCSXDIR
 10
1.0
 20
0.0
 30
0.0
  9
$UCSYDIR
 10
0.0
 20
1.0
 30
0.0
  9
$UCSORTHOREF
  2

  9
$UCSORTHOVIEW
 70
     0
  9
$UCSORGTOP
 10
0.0
 20
0.0
 30
0.0
  9
$UCSORGBOTTOM
 10
0.0
 20
0.0
 30
0.0
  9
$UCSORGLEFT
 10
0.0
 20
0.0
 30
0.0
  9
$UCSORGRIGHT
 10
0.0
 20
0.0
 30
0.0
  9
$UCSORGFRONT
 10
0.0
 20
0.0
 30
0.0
  9
$UCSORGBACK
 10
0.0
 20
0.0
 30
0.0
  9
$PUCSBASE
  2

  9
$PUCSNAME
  2

  9
$PUCSORG
 10
0.0
 20
0.0
 30
0.0
  9
$PUCSXDIR
 10
1.0
 20
0.0
 30
0.0
  9
$PUCSYDIR
 10
0.0
 20
1.0
 30
0.0
  9
$PUCSORTHOREF
  2

  9
$PUCSORTHOVIEW
 70
     0
  9
$PUCSORGTOP
 10
0.0
 20
0.0
 30
0.0
  9
$PUCSORGBOTTOM
 10
0.0
 20
0.0
 30
0.0
  9
$PUCSORGLEFT
 10
0.0
 20
0.0
 30
0.0
  9
$PUCSORGRIGHT
 10
0.0
 20
0.0
 30
0.0
  9
$PUCSORGFRONT
 10
0.0
 20
0.0
 30
0.0
  9
$PUCSORGBACK
 10
0.0
 20
0.0
 30
0.0
  9
$USERI1
 70
     0
  9
$USERI2
 70
     0
  9
$USERI3
 70
     0
  9
$USERI4
 70
     0
  9
$USERI5
 70
     0
  9
$USERR1
 40
0.0
  9
$USERR2
 40
0.0
  9
$USERR3
 40
0.0
  9
$USERR4
 40
0.0
  9
$USERR5
 40
0.0
  9
$WORLDVIEW
 70
     1
  9
$SHADEDGE
 70
     3
  9
$SHADEDIF
 70
    70
  9
$TILEMODE
 70
     1
  9
$MAXACTVP
 70
    64
  9
$PINSBASE
 10
0.0
 20
0.0
 30
0.0
  9
$PLIMCHECK
 70
     0
  9
$PEXTMIN
 10
1.0000000000E+20
 20
1.0000000000E+20
 30
1.0000000000E+20
  9
$PEXTMAX
 10
-1.0000000000E+20
 20
-1.0000000000E+20
 30
-1.0000000000E+20
  9
$PLIMMIN
 10
0.0
 20
0.0
  9
$PLIMMAX
 10
420.0
 20
297.0
  9
$UNITMODE
 70
     0
  9
$VISRETAIN
 70
     1
  9
$PLINEGEN
 70
     0
  9
$PSLTSCALE
 70
     1
  9
$TREEDEPTH
 70
  3020
  9
$CMLSTYLE
  2
Standard
  9
$CMLJUST
 70
     0
  9
$CMLSCALE
 40
20.0
  9
$PROXYGRAPHICS
 70
     1
  9
$MEASUREMENT
 70
     1
  9
$CELWEIGHT
370
    -1
  9
$ENDCAPS
280
     0
  9
$JOINSTYLE
280
     0
  9
$LWDISPLAY
290
     1
  9
$INSUNITS
 70
     4
  9
$HYPERLINKBASE
  1

  9
$STYLESHEET
  1

  9
$XEDIT
290
     1
  9
$CEPSNTYPE
380
     0
  9
$PSTYLEMODE
290
     1
  9
$FINGERPRINTGUID
  2
{70D6C872-2847-4124-B199-F44DD0BFDAD1}
  9
$VERSIONGUID
  2
{FAEB1C32-E019-11D5-929B-00C0DF256EC4}
  9
$EXTNAMES
290
     1
  9
$PSVPSCALE
 40
0.0
  9
$OLESTARTUP
290
     0
  0
ENDSEC
  0
SECTION
  2
CLASSES
  0
CLASS
  1
ACDBDICTIONARYWDFLT
  2
AcDbDictionaryWithDefault
  3
ObjectDBX Classes
 90
        0
280
     0
281
     0
  0
CLASS
  1
VISUALSTYLE
  2
AcDbVisualStyle
  3
ObjectDBX Classes
 90
     4095
280
     0
281
     0
  0
CLASS
  1
MATERIAL
  2
AcDbMaterial
  3
ObjectDBX Classes
 90
     1153
280
     0
281
     0
  0
CLASS
  1
SCALE
  2
AcDbScale
  3
ObjectDBX Classes
 90
     1153
280
     0
281
     0
  0
CLASS
  1
TABLESTYLE
  2
AcDbTableStyle
  3
ObjectDBX Classes
 90
     4095
280
     0
281
     0
  0
CLASS
  1
MLEADERSTYLE
  2
AcDbMLeaderStyle
  3
ACDB_MLEADERSTYLE_CLASS
 90
     4095
280
     0
281
     0
  0
CLASS
  1
SUN
  2
AcDbSun
  3
SCENEOE
 90
     1153
280
     0
281
     0
  0
CLASS
  1
ACDBPLACEHOLDER
  2
AcDbPlaceHolder
  3
ObjectDBX Classes
 90
        0
280
     0
281
     0
  0
CLASS
  1
LAYOUT
  2
AcDbLayout
  3
ObjectDBX Classes
 90
        0
280
     0
281
     0
  0
ENDSEC
  0
SECTION
  2
TABLES
  0
TABLE
  2
VPORT
  5
8
330
0
100
AcDbSymbolTable
 70
     1
  0
VPORT
  5
29
330
8
100
AcDbSymbolTableRecord
100
AcDbViewportTableRecord
  2
*Active
 70
     0
 10
0.0
 20
0.0
 11
1.0
 21
1.0
 12
0.0003535534
 22
5.7069031885
 13
0.0
 23
0.0
 14
10.0
 24
10.0
 15
10.0
 25
10.0
 16
0.0
 26
0.0
 36
1.0
 17
0.0
 27
0.0
 37
0.0
 40
23.4366374661
 41
1.471382168
 42
50.0
 43
0.0
 44
0.0
 50
0.0
 51
0.0
 71
     0
 72
   100
 73
     1
 74
     3
 75
     0
 76
     0
 77
     0
 78
     0
281
     0
 65
     1
110
0.0
120
0.0
130
0.0
111
1.0
121
0.0
131
0.0
112
0.0
122
1.0
132
0.0
 79
     0
146
0.0
  0
ENDTAB
  0
TABLE
  2
LTYPE
  5
5
330
0
100
AcDbSymbolTable
 70
     6
  0
LTYPE
  5
14
330
5
100
AcDbSymbolTableRecord
100
AcDbLinetypeTableRecord
  2
ByBlock
 70
     0
  3

 72
    65
 73
     0
 40
0.0
  0
LTYPE
  5
15
330
5
100
AcDbSymbolTableRecord
100
AcDbLinetypeTableRecord
  2
ByLayer
 70
     0
  3

 72
    65
 73
     0
 40
0.0
  0
LTYPE
  5
16
330
5
100
AcDbSymbolTableRecord
100
AcDbLinetypeTableRecord
  2
Continuous
 70
     0
  3
Solid line
 72
    65
 73
     0
 40
0.0
  0
LTYPE
  5
6E
330
5
100
AcDbSymbolTableRecord
100
AcDbLinetypeTableRecord
  2
HIDDEN
 70
     0
  3
Hidden __ __ __ __ __ __ __ __ __ __ __ __ __ __
 72
    65
 73
     2
 40
1.905
 49
1.27
 74
     0
 49
-0.635
 74
     0
  0
LTYPE
  5
6F
330
5
100
AcDbSymbolTableRecord
100
AcDbLinetypeTableRecord
  2
PHANTOM
 70
     0
  3
Phantom ______  __  __  ______  __  __  ______
 72
    65
 73
     6
 40
12.7
 49
6.35
 74
     0
 49
-1.27
 74
     0
 49
1.27
 74
     0
 49
-1.27
 74
     0
 49
1.27
 74
     0
 49
-1.27
 74
     0
  0
LTYPE
  5
70
330
5
100
AcDbSymbolTableRecord
100
AcDbLinetypeTableRecord
  2
CENTER
 70
     0
  3
Center ____ _ ____ _ ____ _ ____ _ ____ _ ____
 72
    65
 73
     4
 40
10.16
 49
6.35
 74
     0
 49
-1.27
 74
     0
 49
1.27
 74
     0
 49
-1.27
 74
     0
  0
LTYPE
  5
71
330
5
100
AcDbSymbolTableRecord
100
AcDbLinetypeTableRecord
  2
CENTERX2
 70
     0
  3
Center (2x) ________  __  ________  __  _____
 72
    65
 73
     4
 40
20.32
 49
12.7
 74
     0
 49
-2.54
 74
     0
 49
2.54
 74
     0
 49
-2.54
 74
     0
  0
LTYPE
  5
72
330
5
100
AcDbSymbolTableRecord
100
AcDbLinetypeTableRecord
  2
DOT2
 70
     0
  3
Dot (.5x) ........................................
 72
    65
 73
     2
 40
0.635
 49
0.0
 74
     0
 49
-0.635
 74
     0
  0
ENDTAB
  0
TABLE
  2
LAYER
  5
2
330
0
100
AcDbSymbolTable
 70
     1
  0
LAYER
  5
10
330
2
100
AcDbSymbolTableRecord
100
AcDbLayerTableRecord
  2
0
 70
     0
 62
     7
  6
Continuous
370
    -3
390
F
  0
ENDTAB
  0
TABLE
  2
STYLE
  5
3
330
0
100
AcDbSymbolTable
 70
     2
  0
STYLE
  5
11
330
3
100
AcDbSymbolTableRecord
100
AcDbTextStyleTableRecord
  2
Standard
 70
     0
 40
0.0
 41
1.0
 50
0.0
 71
     0
 42
3.5
  3
txt
  4

  0
STYLE
  5
162
330
3
100
AcDbSymbolTableRecord
100
AcDbTextStyleTableRecord
  2
SLDTEXTSTYLE0
 70
     0
 40
0.0
 41
0.7
 50
0.0
 71
     0
 42
3.5
  3
TXT
  4

  0
ENDTAB
  0
TABLE
  2
VIEW
  5
6
330
0
100
AcDbSymbolTable
 70
     0
  0
ENDTAB
  0
TABLE
  2
UCS
  5
7
330
0
100
AcDbSymbolTable
 70
     0
  0
ENDTAB
  0
TABLE
  2
APPID
  5
9
330
0
100
AcDbSymbolTable
 70
     1
  0
APPID
  5
12
330
9
100
AcDbSymbolTableRecord
100
AcDbRegAppTableRecord
  2
ACAD
 70
     0
  0
ENDTAB
  0
TABLE
  2
DIMSTYLE
  5
A
330
0
100
AcDbSymbolTable
 70
     1
100
AcDbDimStyleTable
  0
DIMSTYLE
105
27
330
A
100
AcDbSymbolTableRecord
100
AcDbDimStyleTableRecord
  2
ISO-25
 70
     0
 41
2.5
 42
0.625
 43
3.75
 44
1.25
 73
     0
 74
     0
 77
     1
 78
     8
140
2.5
141
2.5
143
0.0393700787
147
0.625
171
     3
172
     1
178
     0
271
     2
272
     2
274
     3
278
    44
283
     0
284
     8
340
11
  0
ENDTAB
  0
TABLE
  2
BLOCK_RECORD
  5
1
330
0
100
AcDbSymbolTable
 70
     1
  0
BLOCK_RECORD
  5
1F
330
1
100
AcDbSymbolTableRecord
100
AcDbBlockTableRecord
  2
*Model_Space
340
22
  0
BLOCK_RECORD
  5
1B
330
1
100
AcDbSymbolTableRecord
100
AcDbBlockTableRecord
  2
*Paper_Space
340
1E
  0
BLOCK_RECORD
  5
23
330
1
100
AcDbSymbolTableRecord
100
AcDbBlockTableRecord
  2
*Paper_Space0
340
26
  0
ENDTAB
  0
ENDSEC
  0
SECTION
  2
BLOCKS
  0
BLOCK
  5
20
330
1F
100
AcDbEntity
  8
0
100
AcDbBlockBegin
  2
*Model_Space
 70
     0
 10
0.0
 20
0.0
 30
0.0
  3
*Model_Space
  1

  0
ENDBLK
  5
21
330
1F
100
AcDbEntity
  8
0
100
AcDbBlockEnd
  0
BLOCK
  5
1C
330
1B
100
AcDbEntity
 67
     1
  8
0
100
AcDbBlockBegin
  2
*Paper_Space
 70
     0
 10
0.0
 20
0.0
 30
0.0
  3
*Paper_Space
  1

  0
ENDBLK
  5
1D
330
1B
100
AcDbEntity
 67
     1
  8
0
100
AcDbBlockEnd
  0
BLOCK
  5
24
330
23
100
AcDbEntity
  8
0
100
AcDbBlockBegin
  2
*Paper_Space0
 70
     0
 10
0.0
 20
0.0
 30
0.0
  3
*Paper_Space0
  1

  0
ENDBLK
  5
25
330
23
100
AcDbEntity
  8
0
100
AcDbBlockEnd
  0
ENDSEC
  0
SECTION
  2
ENTITIES
  0
SPLINE
  5
73
330
1F
100
AcDbEntity
  8
0
  6
Continuous
 62
     7
370
    25
100
AcDbSpline
210
0.0
220
0.0
230
1.0
 70
     8
 71
     3
 72
    11
 73
     7
 74
     0
 42
0.000000001
 43
0.00000001
 40
0.0
 40
0.0
 40
0.0
 40
0.0
 40
0.2910405810647946
 40
0.5819583217481682
 40
0.8728843051084381
 40
1.0
 40
1.0
 40
1.0
 40
1.0
 10
16.90439788962355
 20
11.35419292424658
 30
0.0
 10
16.80336233692228
 20
11.38024072780115
 30
0.0
 10
16.60133387590214
 20
11.43232534083476
 30
0.0
 10
16.30244861623476
 20
11.46722773523772
 30
0.0
 10
16.06077566318051
 20
11.47263117771692
 30
0.0
 10
15.93085920696856
 20
11.42995858594036
 30
0.0
 10
15.89135496261118
 20
11.41698295112044
 30
0.0
  0
SPLINE
  5
74
330
1F
100
AcDbEntity
  8
0
  6
Continuous
 62
     7
370
    25
100
AcDbSpline
210
0.0
220
0.0
230
1.0
 70
     8
 71
     3
 72
    10
 73
     6
 74
     0
 42
0.000000001
 43
0.00000001
 40
0.0
 40
0.0
 40
0.0
 40
0.0
 40
0.1118217486222738
 40
0.5559074867513704
 40
1.0
 40
1.0
 40
1.0
 40
1.0
 10
15.8500035700849
 20
11.40499776872326
 30
0.0
 10
15.83182813223294
 20
11.40008971650092
 30
0.0
 10
15.74147127320169
 20
11.37568996413269
 30
0.0
 10
15.59368972930291
 20
11.28807822353671
 30
0.0
 10
15.47811263317533
 20
11.18282981307466
 30
0.0
 10
15.42032364429427
 20
11.13020520642052
 30
0.0
  0
SPLINE
  5
75
330
1F
100
AcDbEntity
  8
0
  6
Continuous
 62
     7
370
    25
100
AcDbSpline
210
0.0
220
0.0
230
1.0
 70
     8
 71
     3
 72
    11
 73
     7
 74
     0
 42
0.000000001
 43
0.00000001
 40
0.0
 40
0.0
 40
0.0
 40
0.0
 40
0.236359367530648
 40
0.4635171760318213
 40
0.7083047987438021
 40
1.0
 40
1.0
 40
1.0
 40
1.0
 10
15.42032364429427
 20
11.13020520642052
 30
0.0
 10
15.35573084298455
 20
11.06125303615241
 30
0.0
 10
15.22905986240165
 20
10.92603302952501
 30
0.0
 10
15.09034224754636
 20
10.64368923859051
 30
0.0
 10
15.00165924322886
 20
10.28600644597963
 30
0.0
 10
14.97508072765554
 20
10.01378195214635
 30
0.0
 10
14.96062951858997
 20
9.865768679459972
 30
0.0
  0
SPLINE
  5
76
330
1F
100
AcDbEntity
  8
0
  6
Continuous
 62
     7
370
    25
100
AcDbSpline
210
0.0
220
0.0
230
1.0
 70
     8
 71
     3
 72
    11
 73
     7
 74
     0
 42
0.000000001
 43
0.00000001
 40
0.0
 40
0.0
 40
0.0
 40
0.0
 40
0.2214174986801474
 40
0.4614438509076739
 40
0.7224149062314967
 40
0.9999999999999999
 40
0.9999999999999999
 40
0.9999999999999999
 40
0.9999999999999999
 10
14.96062951858997
 20
9.865768679459972
 30
0.0
 10
14.95075449220055
 20
9.753564227336284
 30
0.0
 10
14.93017450086239
 20
9.519725191191572
 30
0.0
 10
14.90644740695328
 20
9.149476413663885
 30
0.0
 10
14.89724040649203
 20
8.743657851246308
 30
0.0
 10
14.89412991105411
 20
8.461824503852446
 30
0.0
 10
14.8925266851523
 20
8.316560660341851
 30
0.0
  0
SPLINE
  5
78
330
1F
100
AcDbEntity
  8
0
  6
Continuous
 62
     7
370
    25
100
AcDbSpline
210
0.0
220
0.0
230
1.0
 70
     8
 71
     3
 72
    15
 73
    11
 74
     0
 42
0.000000001
 43
0.00000001
 40
0.0
 40
0.0
 40
0.0
 40
0.0
 40
0.1954836490527584
 40
0.3647625918781963
 40
0.5083024074771224
 40
0.6252053248589862
 40
0.7268519339412328
 40
0.8213287269632923
 40
0.9124669323412234
 40
0.9999999999999999
 40
0.9999999999999999
 40
0.9999999999999999
 40
0.9999999999999999
 10
14.8925266851523
 20
-1.125984668598851
 30
0.0
 10
14.8945979697566
 20
-1.331582369889502
 30
0.0
 10
14.89846288195996
 20
-1.715217271173431
 30
0.0
 10
14.91500321118726
 20
-2.253646425389304
 30
0.0
 10
14.95273326192145
 20
-2.714270202009061
 30
0.0
 10
14.99697411376952
 20
-3.105192550765358
 30
0.0
 10
15.07122882943736
 20
-3.444560887457478
 30
0.0
 10
15.1614133512218
 20
-3.752317345823108
 30
0.0
 10
15.27735223903984
 20
-4.035483634002946
 30
0.0
 10
15.37331191767587
 20
-4.205874326286449
 30
0.0
 10
15.42032364429427
 20
-4.289350644233843
 30
0.0
  0
SPLINE
  5
79
330
1F
100
AcDbEntity
  8
0
  6
Continuous
 62
     7
370
    25
100
AcDbSpline
210
0.0
220
0.0
230
1.0
 70
     8
 71
     3
 72
    11
 73
     7
 74
     0
 42
0.000000001
 43
0.00000001
 40
0.0
 40
0.0
 40
0.0
 40
0.0
 40
0.227178508777548
 40
0.4646745497407315
 40
0.7193682167515519
 40
1.0
 40
1.0
 40
1.0
 40
1.0
 10
15.42032364429427
 20
-4.289350644233844
 30
0.0
 10
15.51362681040232
 20
-4.428130979473561
 30
0.0
 10
15.7044705963482
 20
-4.711994493400969
 30
0.0
 10
16.06162686763251
 20
-5.049961174977692
 30
0.0
 10
16.46461976883534
 20
-5.339082442057113
 30
0.0
 10
16.75314520970074
 20
-5.470779041491972
 30
0.0
 10
16.90439788962355
 20
-5.539817887915697
 30
0.0
  0
SPLINE
  5
7D
330
1F
100
AcDbEntity
  8
0
  6
Continuous
 62
     7
370
    25
100
AcDbSpline
210
0.0
220
0.0
230
1.0
 70
     8
 71
     3
 72
    11
 73
     7
 74
     0
 42
0.000000001
 43
0.00000001
 40
0.0
 40
0.0
 40
0.0
 40
0.0
 40
0.2815305562949743
 40
0.5631477903212455
 40
0.8444746181023949
 40
1.0
 40
1.0
 40
1.0
 40
1.0
 10
10.88297236650932
 20
-3.480369067475279
 30
0.0
 10
10.98487273566246
 20
-3.50662241452562
 30
0.0
 10
11.18870484709189
 20
-3.55913719151645
 30
0.0
 10
11.49075567167671
 20
-3.595554703822641
 30
0.0
 10
11.74389139155767
 20
-3.591134928169994
 30
0.0
 10
11.88556157028693
 20
-3.54498624794303
 30
0.0
 10
11.93599809816113
 20
-3.528556684449126
 30
0.0
  0
SPLINE
  5
7E
330
1F
100
AcDbEntity
  8
0
  6
Continuous
 62
     7
370
    25
100
AcDbSpline
210
0.0
220
0.0
230
1.0
 70
     8
 71
     3
 72
    10
 73
     6
 74
     0
 42
0.000000001
 43
0.00000001
 40
0.0
 40
0.0
 40
0.0
 40
0.0
 40
0.0998575129115218
 40
0.5490220344243874
 40
1.0
 40
1.0
 40
1.0
 40
1.0
 10
11.95282286760009
 20
-3.523738002545563
 30
0.0
 10
11.96901460690138
 20
-3.519443592087284
 30
0.0
 10
12.05803766979238
 20
-3.495832689935667
 30
0.0
 10
12.20200353029143
 20
-3.40138427508619
 30
0.0
 10
12.32141079148102
 20
-3.300476527685668
 30
0.0
 10
12.38123470213812
 20
-3.249921008658119
 30
0.0
  0
SPLINE
  5
7F
330
1F
100
AcDbEntity
  8
0
  6
Continuous
 62
     7
370
    25
100
AcDbSpline
210
0.0
220
0.0
230
1.0
 70
     8
 71
     3
 72
    15
 73
    11
 74
     0
 42
0.000000001
 43
0.00000001
 40
0.0
 40
0.0
 40
0.0
 40
0.0
 40
0.0905565420474346
 40
0.1833852389745299
 40
0.2787812537808086
 40
0.3789057145731444
 40
0.494989891486514
 40
0.6376560900786847
 40
0.8051263954641084
 40
1.0
 40
1.0
 40
1.0
 40
1.0
 10
12.38123470213812
 20
-3.249921008658119
 30
0.0
 10
12.42837129878932
 20
-3.194890031902439
 30
0.0
 10
12.52382719679391
 20
-3.083447295738156
 30
0.0
 10
12.63649463125831
 20
-2.870148775572184
 30
0.0
 10
12.7246105967646
 20
-2.621891368830727
 30
0.0
 10
12.79135098212132
 20
-2.330627788310236
 30
0.0
 10
12.83914306427421
 20
-1.97681146571748
 30
0.0
 10
12.86982019380316
 20
-1.543578005336613
 30
0.0
 10
12.89410594004985
 20
-1.024931531713782
 30
0.0
 10
12.89458560206438
 20
-0.6463455959567375
 30
0.0
 10
12.89484357098057
 20
-0.4427368035705504
 30
0.0
  0
SPLINE
  5
85
330
1F
100
AcDbEntity
  8
0
  6
Continuous
 62
     7
370
    25
100
AcDbSpline
210
0.0
220
0.0
230
1.0
 70
     8
 71
     3
 72
    15
 73
    11
 74
     0
 42
0.000000001
 43
0.00000001
 40
0.0
 40
0.0
 40
0.0
 40
0.0
 40
0.1959885647588075
 40
0.3645842172882117
 40
0.507069927204674
 40
0.6231021349325193
 40
0.7223696352166202
 40
0.817722942624496
 40
0.9094839987899066
 40
0.9999999999999999
 40
0.9999999999999999
 40
0.9999999999999999
 40
0.9999999999999999
 10
2.906428000121892
 20
2.973502521570953
 30
0.0
 10
2.906578867136819
 20
2.768488754879292
 30
0.0
 10
2.906859514799193
 20
2.387115567343722
 30
0.0
 10
2.932385715111494
 20
1.849137951128381
 30
0.0
 10
2.959047741354817
 20
1.394833212809004
 30
0.0
 10
3.005614277629728
 20
1.008991991839559
 30
0.0
 10
3.078144447781714
 20
0.6733926580225879
 30
0.0
 10
3.163684469759739
 20
0.3664466168776976
 30
0.0
 10
3.278429179766684
 20
0.0781925032171866
 30
0.0
 10
3.373049743143646
 20
-0.0976768220305336
 30
0.0
 10
3.420036868964341
 20
-0.185010841386282
 30
0.0
  0
SPLINE
  5
86
330
1F
100
AcDbEntity
  8
0
  6
Continuous
 62
     7
370
    25
100
AcDbSpline
210
0.0
220
0.0
230
1.0
 70
     8
 71
     3
 72
    15
 73
    11
 74
     0
 42
0.000000001
 43
0.00000001
 40
0.0
 40
0.0
 40
0.0
 40
0.0
 40
0.1168228925738613
 40
0.2284210190715076
 40
0.3390265381882999
 40
0.449509063547144
 40
0.5660600789037671
 40
0.6973037683546204
 40
0.8413553573650685
 40
1.0
 40
1.0
 40
1.0
 40
1.0
 10
3.420036868964341
 20
-0.185010841386282
 30
0.0
 10
3.465527739654986
 20
-0.2596391494907803
 30
0.0
 10
3.55447495550172
 20
-0.4055581026448825
 30
0.0
 10
3.701078816171937
 20
-0.6058821811915244
 30
0.0
 10
3.858537433619212
 20
-0.7794773503025931
 30
0.0
 10
4.026101967144629
 20
-0.9379950055766919
 30
0.0
 10
4.212966560626176
 20
-1.078460730464433
 30
0.0
 10
4.422726803300894
 20
-1.20217893357181
 30
0.0
 10
4.656200935544784
 20
-1.330618217008007
 30
0.0
 10
4.820722263306589
 20
-1.400055941286924
 30
0.0
 10
4.90694873235353
 20
-1.436448607603687
 30
0.0
  0
SPLINE
  5
8A
330
1F
100
AcDbEntity
  8
0
  6
Continuous
 62
     7
370
    25
100
AcDbSpline
210
0.0
220
0.0
230
1.0
 70
     8
 71
     3
 72
    11
 73
     7
 74
     0
 42
0.000000001
 43
0.00000001
 40
0.0
 40
0.0
 40
0.0
 40
0.0
 40
0.2835085250643601
 40
0.5671148484668305
 40
0.8504263232891647
 40
1.0
 40
1.0
 40
1.0
 40
1.0
 10
0.5313416839830536
 20
0.0600971422168241
 30
0.0
 10
0.6332646188425167
 20
0.0340530747476274
 30
0.0
 10
0.8371456476228589
 20
-0.0180440442822151
 30
0.0
 10
1.139045508758709
 20
-0.0542263642968189
 30
0.0
 10
1.391109415922269
 20
-0.0561537123099534
 30
0.0
 10
1.530612863807452
 20
-0.0108072790846923
 30
0.0
 10
1.578815126093702
 20
0.0048611556472508
 30
0.0
  0
SPLINE
  5
8B
330
1F
100
AcDbEntity
  8
0
  6
Continuous
 62
     7
370
    25
100
AcDbSpline
210
0.0
220
0.0
230
1.0
 70
     8
 71
     3
 72
    10
 73
     6
 74
     0
 42
0.000000001
 43
0.00000001
 40
0.0
 40
0.0
 40
0.0
 40
0.0
 40
0.1113131527190229
 40
0.5557793282042863
 40
1.0
 40
1.0
 40
1.0
 40
1.0
 10
1.595653301278882
 20
0.0096374962666916
 30
0.0
 10
1.613950307036985
 20
0.0144296166264797
 30
0.0
 10
1.705306066172273
 20
0.038356361752096
 30
0.0
 10
1.853017010438561
 20
0.1302417472234156
 30
0.0
 10
1.968860605283392
 20
0.2377676329553681
 30
0.0
 10
2.026766401551952
 20
0.2915157235695359
 30
0.0
  0
SPLINE
  5
8C
330
1F
100
AcDbEntity
  8
0
  6
Continuous
 62
     7
370
    25
100
AcDbSpline
210
0.0
220
0.0
230
1.0
 70
     8
 71
     3
 72
    15
 73
    11
 74
     0
 42
0.000000001
 43
0.00000001
 40
0.0
 40
0.0
 40
0.0
 40
0.0
 40
0.0905134080550136
 40
0.1832978887143591
 40
0.2791247854929273
 40
0.379201554891187
 40
0.4952304384608185
 40
0.6378286821312396
 40
0.8052192178752893
 40
1.0
 40
1.0
 40
1.0
 40
1.0
 10
2.026766401551952
 20
0.2915157235695359
 30
0.0
 10
2.073970494723321
 20
0.3464848835911375
 30
0.0
 10
2.169563079323923
 20
0.4578024352431252
 30
0.0
 10
2.281366712411385
 20
0.6724330674077756
 30
0.0
 10
2.37378088157018
 20
0.9173017102408108
 30
0.0
 10
2.439431815955495
 20
1.210102835343704
 30
0.0
 10
2.487614935415598
 20
1.563560746888321
 30
0.0
 10
2.518154223035568
 20
1.996920548316873
 30
0.0
 10
2.542486462993874
 20
2.515524407438211
 30
0.0
 10
2.542958838385475
 20
2.894117021857652
 30
0.0
 10
2.543212888454304
 20
3.097729406121554
 30
0.0
  0
SPLINE
  5
8E
330
1F
100
AcDbEntity
  8
0
  6
Continuous
 62
     7
370
    25
100
AcDbSpline
210
0.0
220
0.0
230
1.0
 70
     8
 71
     3
 72
     9
 73
     5
 74
     0
 42
0.000000001
 43
0.00000001
 40
0.0
 40
0.0
 40
0.0
 40
0.0
 40
0.5148856056339138
 40
1.0
 40
1.0
 40
1.0
 40
1.0
 10
2.543212888454303
 20
12.54027473506225
 30
0.0
 10
2.542901743478257
 20
12.73151691162979
 30
0.0
 10
2.54229744424627
 20
13.1029434469125
 30
0.0
 10
2.523806790263539
 20
13.4796665867138
 30
0.0
 10
2.514836707855273
 20
13.66242040452221
 30
0.0
  0
SPLINE
  5
8F
330
1F
100
AcDbEntity
  8
0
  6
Continuous
 62
     7
370
    25
100
AcDbSpline
210
0.0
220
0.0
230
1.0
 70
     8
 71
     3
 72
    11
 73
     7
 74
     0
 42
0.000000001
 43
0.00000001
 40
0.0
 40
0.0
 40
0.0
 40
0.0
 40
0.3113189939557902
 40
0.5800361302823042
 40
0.8100714124393957
 40
1.0
 40
1.0
 40
1.0
 40
1.0
 10
2.514836707855273
 20
13.66242040452221
 30
0.0
 10
2.506353894642747
 20
13.81273510547849
 30
0.0
 10
2.490549082712768
 20
14.09279497705705
 30
0.0
 10
2.440525523934266
 20
14.48846502939037
 30
0.0
 10
2.384900588842937
 20
14.82741174864754
 30
0.0
 10
2.321965074621705
 20
15.03031123622981
 30
0.0
 10
2.293502499182837
 20
15.12207249445228
 30
0.0
  0
SPLINE
  5
90
330
1F
100
AcDbEntity
  8
0
  6
Continuous
 62
     7
370
    25
100
AcDbSpline
210
0.0
220
0.0
230
1.0
 70
     8
 71
     3
 72
    15
 73
    11
 74
     0
 42
0.000000001
 43
0.00000001
 40
0.0
 40
0.0
 40
0.0
 40
0.0
 40
0.1191683526885426
 40
0.2325867107909408
 40
0.3429306060743777
 40
0.4542016381530257
 40
0.5706920582844137
 40
0.7005567330753762
 40
0.8421791742984214
 40
1.0
 40
1.0
 40
1.0
 40
1.0
 10
2.293502499182837
 20
15.12207249445228
 30
0.0
 10
2.252280798320242
 20
15.23253055474611
 30
0.0
 10
2.171826385713758
 20
15.44811696124145
 30
0.0
 10
2.014643326144256
 20
15.74404204537361
 30
0.0
 10
1.840720759109276
 20
16.01331727923305
 30
0.0
 10
1.637165608153799
 20
16.24539645386232
 30
0.0
 10
1.406758459548683
 20
16.45404523367682
 30
0.0
 10
1.145990983226837
 20
16.64418409721733
 30
0.0
 10
0.8497486847113613
 20
16.81161338711884
 30
0.0
 10
0.6412371613985159
 20
16.90492716230369
 30
0.0
 10
0.5313416839830536
 20
16.9541079543791
 30
0.0
  0
SPLINE
  5
9D
330
1F
100
AcDbEntity
  8
0
  6
Continuous
 62
     7
370
    25
100
AcDbSpline
210
0.0
220
0.0
230
1.0
 70
     8
 71
     3
 72
    10
 73
     6
 74
     0
 42
0.000000001
 43
0.00000001
 40
0.0
 40
0.0
 40
0.0
 40
0.0
 40
0.1113131527190229
 40
0.5557793282042863
 40
1.0
 40
1.0
 40
1.0
 40
1.0
 10
1.594946194497695
 20
0.009395651504044
 30
0.0
 10
1.613243200255798
 20
0.0141877718638317
 30
0.0
 10
1.704598959391086
 20
0.0381145169894479
 30
0.0
 10
1.852309903657374
 20
0.1299999024607676
 30
0.0
 10
1.968153498502205
 20
0.23752578819272
 30
0.0
 10
2.026059294770765
 20
0.2912738788068878
 30
0.0
  0
SPLINE
  5
9F
330
1F
100
AcDbEntity
  8
0
  6
Continuous
 62
     7
370
    25
100
AcDbSpline
210
0.0
220
0.0
230
1.0
 70
     8
 71
     3
 72
    15
 73
    11
 74
     0
 42
0.000000001
 43
0.00000001
 40
0.0
 40
0.0
 40
0.0
 40
0.0
 40
0.0905134080550136
 40
0.1832978887143591
 40
0.2791247854929273
 40
0.379201554891187
 40
0.4952304384608185
 40
0.6378286821312396
 40
0.8052192178752893
 40
1.0
 40
1.0
 40
1.0
 40
1.0
 10
2.026059294770765
 20
0.2912738788068878
 30
0.0
 10
2.073263387942134
 20
0.3462430388284894
 30
0.0
 10
2.168855972542736
 20
0.4575605904804771
 30
0.0
 10
2.280659605630198
 20
0.6721912226451275
 30
0.0
 10
2.373073774788993
 20
0.9170598654781627
 30
0.0
 10
2.438724709174308
 20
1.209860990581056
 30
0.0
 10
2.486907828634411
 20
1.563318902125673
 30
0.0
 10
2.517447116254381
 20
1.996678703554225
 30
0.0
 10
2.541779356212687
 20
2.515282562675563
 30
0.0
 10
2.542251731604289
 20
2.893875177095004
 30
0.0
 10
2.542505781673118
 20
3.097487561358906
 30
0.0
  0
SPLINE
  5
A6
330
1F
100
AcDbEntity
  8
0
  6
Continuous
 62
     7
370
    25
100
AcDbSpline
210
0.0
220
0.0
230
1.0
 70
     8
 71
     3
 72
    15
 73
    11
 74
     0
 42
0.000000001
 43
0.00000001
 40
0.0
 40
0.0
 40
0.0
 40
0.0
 40
0.1191683526885426
 40
0.2325867107909408
 40
0.3429306060743777
 40
0.4542016381530257
 40
0.5706920582844137
 40
0.7005567330753762
 40
0.8421791742984214
 40
1.0
 40
1.0
 40
1.0
 40
1.0
 10
2.292795392401651
 20
15.12183064968963
 30
0.0
 10
2.251573691539056
 20
15.23228870998347
 30
0.0
 10
2.171119278932572
 20
15.4478751164788
 30
0.0
 10
2.013936219363069
 20
15.74380020061097
 30
0.0
 10
1.840013652328089
 20
16.0130754344704
 30
0.0
 10
1.636458501372613
 20
16.24515460909966
 30
0.0
 10
1.406051352767497
 20
16.45380338891417
 30
0.0
 10
1.145283876445651
 20
16.64394225245468
 30
0.0
 10
0.8490415779301748
 20
16.81137154235619
 30
0.0
 10
0.6405300546173294
 20
16.90468531754104
 30
0.0
 10
0.5306345772018671
 20
16.95386610961645
 30
0.0
  0
SPLINE
  5
AA
330
1F
100
AcDbEntity
  8
0
  6
Continuous
 62
     7
370
    25
100
AcDbSpline
210
0.0
220
0.0
230
1.0
 70
     8
 71
     3
 72
     9
 73
     5
 74
     0
 42
0.000000001
 43
0.00000001
 40
0.0
 40
0.0
 40
0.0
 40
0.0
 40
0.5148856056339138
 40
1.0
 40
1.0
 40
1.0
 40
1.0
 10
2.542505781673117
 20
12.54003289029961
 30
0.0
 10
2.542194636697071
 20
12.73127506686715
 30
0.0
 10
2.541590337465085
 20
13.10270160214985
 30
0.0
 10
2.523099683482352
 20
13.47942474195115
 30
0.0
 10
2.514129601074087
 20
13.66217855975956
 30
0.0
  0
SPLINE
  5
AD
330
1F
100
AcDbEntity
  8
0
  6
Continuous
 62
     7
370
    25
100
AcDbSpline
210
0.0
220
0.0
230
1.0
 70
     8
 71
     3
 72
    11
 73
     7
 74
     0
 42
0.000000001
 43
0.00000001
 40
0.0
 40
0.0
 40
0.0
 40
0.0
 40
0.3113189939557902
 40
0.5800361302823042
 40
0.8100714124393957
 40
1.0
 40
1.0
 40
1.0
 40
1.0
 10
2.514129601074087
 20
13.66217855975956
 30
0.0
 10
2.50564678786156
 20
13.81249326071584
 30
0.0
 10
2.489841975931582
 20
14.0925531322944
 30
0.0
 10
2.43981841715308
 20
14.48822318462772
 30
0.0
 10
2.38419348206175
 20
14.82716990388489
 30
0.0
 10
2.321257967840519
 20
15.03006939146716
 30
0.0
 10
2.292795392401651
 20
15.12183064968963
 30
0.0
  0
SPLINE
  5
B6
330
1F
100
AcDbEntity
  8
0
  6
Continuous
 62
     7
370
    25
100
AcDbSpline
210
0.0
220
0.0
230
1.0
 70
     8
 71
     3
 72
    10
 73
     6
 74
     0
 42
0.000000001
 43
0.00000001
 40
0.0
 40
0.0
 40
0.0
 40
0.0
 40
0.0998575129115218
 40
0.5490220344243874
 40
1.0
 40
1.0
 40
1.0
 40
1.0
 10
11.95211576081891
 20
-3.52397984730821
 30
0.0
 10
11.96830750012019
 20
-3.519685436849931
 30
0.0
 10
12.05733056301119
 20
-3.496074534698314
 30
0.0
 10
12.20129642351024
 20
-3.401626119848838
 30
0.0
 10
12.32070368469984
 20
-3.300718372448316
 30
0.0
 10
12.38052759535693
 20
-3.250162853420767
 30
0.0
  0
SPLINE
  5
B8
330
1F
100
AcDbEntity
  8
0
  6
Continuous
 62
     7
370
    25
100
AcDbSpline
210
0.0
220
0.0
230
1.0
 70
     8
 71
     3
 72
    15
 73
    11
 74
     0
 42
0.000000001
 43
0.00000001
 40
0.0
 40
0.0
 40
0.0
 40
0.0
 40
0.0905565420474346
 40
0.1833852389745299
 40
0.2787812537808086
 40
0.3789057145731444
 40
0.494989891486514
 40
0.6376560900786847
 40
0.8051263954641084
 40
1.0
 40
1.0
 40
1.0
 40
1.0
 10
12.38052759535693
 20
-3.250162853420767
 30
0.0
 10
12.42766419200814
 20
-3.195131876665086
 30
0.0
 10
12.52312009001272
 20
-3.083689140500804
 30
0.0
 10
12.63578752447713
 20
-2.870390620334832
 30
0.0
 10
12.72390348998341
 20
-2.622133213593376
 30
0.0
 10
12.79064387534014
 20
-2.330869633072885
 30
0.0
 10
12.83843595749302
 20
-1.977053310480129
 30
0.0
 10
12.86911308702198
 20
-1.543819850099262
 30
0.0
 10
12.89339883326867
 20
-1.02517337647643
 30
0.0
 10
12.89387849528319
 20
-0.6465874407193856
 30
0.0
 10
12.89413646419938
 20
-0.442978648333198
 30
0.0
  0
SPLINE
  5
BB
330
1F
100
AcDbEntity
  8
0
  6
Continuous
 62
     7
370
    25
100
AcDbSpline
210
0.0
220
0.0
230
1.0
 70
     8
 71
     3
 72
    11
 73
     7
 74
     0
 42
0.000000001
 43
0.00000001
 40
0.0
 40
0.0
 40
0.0
 40
0.0
 40
0.2914845352370687
 40
0.5828460427116314
 40
0.8742158054364945
 40
1.0
 40
1.0
 40
1.0
 40
1.0
 10
16.90369078284236
 20
11.35395107948394
 30
0.0
 10
16.80265468358068
 20
11.38000087430114
 30
0.0
 10
16.60062512967041
 20
11.4320894690196
 30
0.0
 10
16.30174806410409
 20
11.46696201016749
 30
0.0
 10
16.06056906709738
 20
11.47244579112159
 30
0.0
 10
15.93111577756595
 20
11.42996571154323
 30
0.0
 10
15.89208180108601
 20
11.41715671740233
 30
0.0
  0
SPLINE
  5
C8
330
1F
100
AcDbEntity
  8
0
  6
Continuous
 62
     7
370
    25
100
AcDbSpline
210
0.0
220
0.0
230
1.0
 70
     8
 71
     3
 72
    15
 73
    11
 74
     0
 42
0.000000001
 43
0.00000001
 40
0.0
 40
0.0
 40
0.0
 40
0.0
 40
0.1191683526885426
 40
0.2325867107909408
 40
0.3429306060743777
 40
0.4542016381530257
 40
0.5706920582844137
 40
0.7005567330753762
 40
0.8421791742984214
 40
1.0
 40
1.0
 40
1.0
 40
1.0
 10
-2.292795392401674
 20
15.12183064968963
 30
0.0
 10
-2.251573691539079
 20
15.23228870998348
 30
0.0
 10
-2.171119278932593
 20
15.44787511647881
 30
0.0
 10
-2.01393621936309
 20
15.74380020061098
 30
0.0
 10
-1.840013652328108
 20
16.01307543447041
 30
0.0
 10
-1.636458501372629
 20
16.24515460909967
 30
0.0
 10
-1.406051352767511
 20
16.45380338891417
 30
0.0
 10
-1.145283876445662
 20
16.64394225245469
 30
0.0
 10
-0.8490415779301834
 20
16.8113715423562
 30
0.0
 10
-0.6405300546173359
 20
16.90468531754104
 30
0.0
 10
-0.5306345772018725
 20
16.95386610961646
 30
0.0
  0
SPLINE
  5
C9
330
1F
100
AcDbEntity
  8
0
  6
Continuous
 62
     7
370
    25
100
AcDbSpline
210
0.0
220
0.0
230
1.0
 70
     8
 71
     3
 72
    11
 73
     7
 74
     0
 42
0.000000001
 43
0.00000001
 40
0.0
 40
0.0
 40
0.0
 40
0.0
 40
0.3113189939557902
 40
0.5800361302823042
 40
0.8100714124393957
 40
1.0
 40
1.0
 40
1.0
 40
1.0
 10
-2.514129601074112
 20
13.66217855975957
 30
0.0
 10
-2.505646787861587
 20
13.81249326071585
 30
0.0
 10
-2.489841975931607
 20
14.09255313229441
 30
0.0
 10
-2.439818417153105
 20
14.48822318462773
 30
0.0
 10
-2.384193482061775
 20
14.8271699038849
 30
0.0
 10
-2.321257967840542
 20
15.03006939146717
 30
0.0
 10
-2.292795392401674
 20
15.12183064968963
 30
0.0
  0
SPLINE
  5
CA
330
1F
100
AcDbEntity
  8
0
  6
Continuous
 62
     7
370
    25
100
AcDbSpline
210
0.0
220
0.0
230
1.0
 70
     8
 71
     3
 72
     9
 73
     5
 74
     0
 42
0.000000001
 43
0.00000001
 40
0.0
 40
0.0
 40
0.0
 40
0.0
 40
0.5148856056339138
 40
1.0
 40
1.0
 40
1.0
 40
1.0
 10
-2.542505781673143
 20
12.54003289029962
 30
0.0
 10
-2.542194636697097
 20
12.73127506686715
 30
0.0
 10
-2.54159033746511
 20
13.10270160214986
 30
0.0
 10
-2.523099683482378
 20
13.47942474195116
 30
0.0
 10
-2.514129601074112
 20
13.66217855975957
 30
0.0
  0
SPLINE
  5
CC
330
1F
100
AcDbEntity
  8
0
  6
Continuous
 62
     7
370
    25
100
AcDbSpline
210
0.0
220
0.0
230
1.0
 70
     8
 71
     3
 72
    15
 73
    11
 74
     0
 42
0.000000001
 43
0.00000001
 40
0.0
 40
0.0
 40
0.0
 40
0.0
 40
0.0905134080550136
 40
0.1832978887143591
 40
0.2791247854929273
 40
0.379201554891187
 40
0.4952304384608185
 40
0.6378286821312396
 40
0.8052192178752893
 40
1.0
 40
1.0
 40
1.0
 40
1.0
 10
-2.026059294770786
 20
0.2912738788068948
 30
0.0
 10
-2.073263387942155
 20
0.3462430388284968
 30
0.0
 10
-2.168855972542758
 20
0.4575605904804849
 30
0.0
 10
-2.280659605630222
 20
0.6721912226451358
 30
0.0
 10
-2.373073774789017
 20
0.9170598654781709
 30
0.0
 10
-2.438724709174333
 20
1.209860990581064
 30
0.0
 10
-2.486907828634436
 20
1.563318902125682
 30
0.0
 10
-2.517447116254407
 20
1.996678703554234
 30
0.0
 10
-2.541779356212713
 20
2.515282562675571
 30
0.0
 10
-2.542251731604314
 20
2.893875177095013
 30
0.0
 10
-2.542505781673143
 20
3.097487561358915
 30
0.0
  0
SPLINE
  5
CD
330
1F
100
AcDbEntity
  8
0
  6
Continuous
 62
     7
370
    25
100
AcDbSpline
210
0.0
220
0.0
230
1.0
 70
     8
 71
     3
 72
    15
 73
    11
 74
     0
 42
0.000000001
 43
0.00000001
 40
0.0
 40
0.0
 40
0.0
 40
0.0
 40
0.1596093378370551
 40
0.3046825702816565
 40
0.4336024574895044
 40
0.5495950166522121
 40
0.6588519477019112
 40
0.7712944070131632
 40
0.883736866324415
 40
0.9999999999999999
 40
0.9999999999999999
 40
0.9999999999999999
 40
0.9999999999999999
 10
-0.5306345772018726
 20
0.0598552974541778
 30
0.0
 10
-0.6178017218895918
 20
0.0369888501486203
 30
0.0
 10
-0.7841974356208313
 20
-0.0066615279099604
 30
0.0
 10
-1.018715164709246
 20
-0.0391797707466339
 30
0.0
 10
-1.228453794313848
 20
-0.0579998550082699
 30
0.0
 10
-1.413489805529414
 20
-0.0437627952193462
 30
0.0
 10
-1.584051989559062
 20
-0.0065704260780305
 30
0.0
 10
-1.741093516243956
 20
0.0649276023755745
 30
0.0
 10
-1.891514958141547
 20
0.161197618218728
 30
0.0
 10
-1.980714470774246
 20
0.2474349087672094
 30
0.0
 10
-2.026059294770786
 20
0.2912738788068948
 30
0.0
  0
SPLINE
  5
CF
330
1F
100
AcDbEntity
  8
0
  6
Continuous
 62
     7
370
    25
100
AcDbSpline
210
0.0
220
0.0
230
1.0
 70
     8
 71
     3
 72
    15
 73
    11
 74
     0
 42
0.000000001
 43
0.00000001
 40
0.0
 40
0.0
 40
0.0
 40
0.0
 40
0.1168228925738613
 40
0.2284210190715076
 40
0.3390265381882999
 40
0.449509063547144
 40
0.5660600789037671
 40
0.6973037683546204
 40
0.8413553573650685
 40
1.0
 40
1.0
 40
1.0
 40
1.0
 10
-3.419329762183189
 20
-0.185252686148918
 30
0.0
 10
-3.464820632873835
 20
-0.2598809942534163
 30
0.0
 10
-3.55376784872057
 20
-0.405799947407518
 30
0.0
 10
-3.700371709390788
 20
-0.6061240259541594
 30
0.0
 10
-3.857830326838064
 20
-0.7797191950652278
 30
0.0
 10
-4.025394860363482
 20
-0.9382368503393261
 30
0.0
 10
-4.212259453845033
 20
-1.078702575227066
 30
0.0
 10
-4.422019696519752
 20
-1.202420778334443
 30
0.0
 10
-4.655493828763644
 20
-1.330860061770639
 30
0.0
 10
-4.820015156525451
 20
-1.400297786049555
 30
0.0
 10
-4.906241625572393
 20
-1.436690452366318
 30
0.0
  0
SPLINE
  5
D0
330
1F
100
AcDbEntity
  8
0
  6
Continuous
 62
     7
370
    25
100
AcDbSpline
210
0.0
220
0.0
230
1.0
 70
     8
 71
     3
 72
    15
 73
    11
 74
     0
 42
0.000000001
 43
0.00000001
 40
0.0
 40
0.0
 40
0.0
 40
0.0
 40
0.1959885647588075
 40
0.3645842172882117
 40
0.507069927204674
 40
0.6231021349325193
 40
0.7223696352166202
 40
0.817722942624496
 40
0.9094839987899066
 40
0.9999999999999999
 40
0.9999999999999999
 40
0.9999999999999999
 40
0.9999999999999999
 10
-2.905720893340735
 20
2.973260676808316
 30
0.0
 10
-2.905871760355662
 20
2.768246910116654
 30
0.0
 10
-2.906152408018036
 20
2.386873722581084
 30
0.0
 10
-2.931678608330337
 20
1.848896106365743
 30
0.0
 10
-2.958340634573661
 20
1.394591368046366
 30
0.0
 10
-3.004907170848572
 20
1.008750147076921
 30
0.0
 10
-3.077437341000559
 20
0.6731508132599506
 30
0.0
 10
-3.162977362978585
 20
0.3662047721150609
 30
0.0
 10
-3.277722072985531
 20
0.0779506584545502
 30
0.0
 10
-3.372342636362493
 20
-0.0979186667931699
 30
0.0
 10
-3.419329762183188
 20
-0.185252686148918
 30
0.0
  0
SPLINE
  5
D6
330
1F
100
AcDbEntity
  8
0
  6
Continuous
 62
     7
370
    25
100
AcDbSpline
210
0.0
220
0.0
230
1.0
 70
     8
 71
     3
 72
    15
 73
    11
 74
     0
 42
0.000000001
 43
0.00000001
 40
0.0
 40
0.0
 40
0.0
 40
0.0
 40
0.0905565420474346
 40
0.1833852389745299
 40
0.2787812537808086
 40
0.3789057145731444
 40
0.494989891486514
 40
0.6376560900786847
 40
0.8051263954641084
 40
1.0
 40
1.0
 40
1.0
 40
1.0
 10
-12.38052759535706
 20
-3.250162853420724
 30
0.0
 10
-12.42766419200826
 20
-3.195131876665044
 30
0.0
 10
-12.52312009001285
 20
-3.08368914050076
 30
0.0
 10
-12.63578752447725
 20
-2.870390620334789
 30
0.0
 10
-12.72390348998354
 20
-2.622133213593332
 30
0.0
 10
-12.79064387534027
 20
-2.33086963307284
 30
0.0
 10
-12.83843595749316
 20
-1.977053310480084
 30
0.0
 10
-12.86911308702211
 20
-1.543819850099217
 30
0.0
 10
-12.8933988332688
 20
-1.025173376476386
 30
0.0
 10
-12.89387849528333
 20
-0.6465874407193409
 30
0.0
 10
-12.89413646419951
 20
-0.4429786483331529
 30
0.0
  0
SPLINE
  5
D7
330
1F
100
AcDbEntity
  8
0
  6
Continuous
 62
     7
370
    25
100
AcDbSpline
210
0.0
220
0.0
230
1.0
 70
     8
 71
     3
 72
    13
 73
     9
 74
     0
 42
0.000000001
 43
0.00000001
 40
0.0
 40
0.0
 40
0.0
 40
0.0
 40
0.1613721683741993
 40
0.3064794618392399
 40
0.4374796815053439
 40
0.5540272782593797
 40
0.7738013730436303
 40
1.0
 40
1.0
 40
1.0
 40
1.0
 10
-10.88226525972824
 20
-3.48061091223789
 30
0.0
 10
-10.97037248219325
 20
-3.503770935700024
 30
0.0
 10
-11.13770650513709
 20
-3.547756658878755
 30
0.0
 10
-11.37438615022575
 20
-3.581615867179791
 30
0.0
 10
-11.58510523834505
 20
-3.596901511316867
 30
0.0
 10
-11.8278624394442
 20
-3.573251469539814
 30
0.0
 10
-12.10666489536196
 20
-3.484954003582641
 30
0.0
 10
-12.28836751320904
 20
-3.329174605247227
 30
0.0
 10
-12.38052759535706
 20
-3.250162853420724
 30
0.0
  0
SPLINE
  5
DB
330
1F
100
AcDbEntity
  8
0
  6
Continuous
 62
     7
370
    25
100
AcDbSpline
210
0.0
220
0.0
230
1.0
 70
     8
 71
     3
 72
    11
 73
     7
 74
     0
 42
0.000000001
 43
0.00000001
 40
0.0
 40
0.0
 40
0.0
 40
0.0
 40
0.227178508777548
 40
0.4646745497407315
 40
0.7193682167515519
 40
1.0
 40
1.0
 40
1.0
 40
1.0
 10
-15.41961653751324
 20
-4.289592488996439
 30
0.0
 10
-15.51291970362129
 20
-4.428372824236155
 30
0.0
 10
-15.70376348956718
 20
-4.712236338163563
 30
0.0
 10
-16.06091976085149
 20
-5.050203019740286
 30
0.0
 10
-16.46391266205433
 20
-5.339324286819703
 30
0.0
 10
-16.75243810291972
 20
-5.471020886254562
 30
0.0
 10
-16.90369078284253
 20
-5.540059732678286
 30
0.0
  0
SPLINE
  5
DC
330
1F
100
AcDbEntity
  8
0
  6
Continuous
 62
     7
370
    25
100
AcDbSpline
210
0.0
220
0.0
230
1.0
 70
     8
 71
     3
 72
    15
 73
    11
 74
     0
 42
0.000000001
 43
0.00000001
 40
0.0
 40
0.0
 40
0.0
 40
0.0
 40
0.1954836490527584
 40
0.3647625918781963
 40
0.5083024074771224
 40
0.6252053248589862
 40
0.7268519339412328
 40
0.8213287269632923
 40
0.9124669323412234
 40
0.9999999999999999
 40
0.9999999999999999
 40
0.9999999999999999
 40
0.9999999999999999
 10
-14.89181957837127
 20
-1.126226513361447
 30
0.0
 10
-14.89389086297556
 20
-1.331824214652099
 30
0.0
 10
-14.89775577517893
 20
-1.715459115936027
 30
0.0
 10
-14.91429610440623
 20
-2.2538882701519
 30
0.0
 10
-14.95202615514042
 20
-2.714512046771656
 30
0.0
 10
-14.99626700698849
 20
-3.105434395527955
 30
0.0
 10
-15.07052172265632
 20
-3.444802732220075
 30
0.0
 10
-15.16070624444077
 20
-3.752559190585704
 30
0.0
 10
-15.27664513225881
 20
-4.03572547876554
 30
0.0
 10
-15.37260481089484
 20
-4.206116171049044
 30
0.0
 10
-15.41961653751323
 20
-4.289592488996438
 30
0.0
  0
SPLINE
  5
DE
330
1F
100
AcDbEntity
  8
0
  6
Continuous
 62
     7
370
    25
100
AcDbSpline
210
0.0
220
0.0
230
1.0
 70
     8
 71
     3
 72
    11
 73
     7
 74
     0
 42
0.000000001
 43
0.00000001
 40
0.0
 40
0.0
 40
0.0
 40
0.0
 40
0.2214174986801474
 40
0.4614438509076739
 40
0.7224149062314967
 40
0.9999999999999999
 40
0.9999999999999999
 40
0.9999999999999999
 40
0.9999999999999999
 10
-14.95992241180894
 20
9.865526834697375
 30
0.0
 10
-14.95004738541951
 20
9.753322382573685
 30
0.0
 10
-14.92946739408136
 20
9.519483346428974
 30
0.0
 10
-14.90574030017224
 20
9.149234568901289
 30
0.0
 10
-14.896533299711
 20
8.743416006483711
 30
0.0
 10
-14.89342280427308
 20
8.461582659089851
 30
0.0
 10
-14.89181957837127
 20
8.316318815579256
 30
0.0
  0
SPLINE
  5
DF
330
1F
100
AcDbEntity
  8
0
  6
Continuous
 62
     7
370
    25
100
AcDbSpline
210
0.0
220
0.0
230
1.0
 70
     8
 71
     3
 72
    11
 73
     7
 74
     0
 42
0.000000001
 43
0.00000001
 40
0.0
 40
0.0
 40
0.0
 40
0.0
 40
0.236359367530648
 40
0.4635171760318213
 40
0.7083047987438021
 40
1.0
 40
1.0
 40
1.0
 40
1.0
 10
-15.41961653751323
 20
11.12996336165793
 30
0.0
 10
-15.35502373620352
 20
11.06101119138982
 30
0.0
 10
-15.22835275562062
 20
10.92579118476242
 30
0.0
 10
-15.08963514076533
 20
10.64344739382791
 30
0.0
 10
-15.00095213644782
 20
10.28576460121704
 30
0.0
 10
-14.9743736208745
 20
10.01354010738376
 30
0.0
 10
-14.95992241180894
 20
9.865526834697375
 30
0.0
  0
SPLINE
  5
E0
330
1F
100
AcDbEntity
  8
0
  6
Continuous
 62
     7
370
    25
100
AcDbSpline
210
0.0
220
0.0
230
1.0
 70
     8
 71
     3
 72
    15
 73
    11
 74
     0
 42
0.000000001
 43
0.00000001
 40
0.0
 40
0.0
 40
0.0
 40
0.0
 40
0.1593408700146219
 40
0.3037821770470104
 40
0.4342538623317392
 40
0.5491349745673257
 40
0.6577986752999644
 40
0.7665044421161471
 40
0.8813855543517335
 40
1.0
 40
1.0
 40
1.0
 40
1.0
 10
-16.90369078284253
 20
11.35395107948399
 30
0.0
 10
-16.81754947820851
 20
11.37581848215431
 30
0.0
 10
-16.65332172513427
 20
11.41750852180919
 30
0.0
 10
-16.41960228564247
 20
11.4579754974263
 30
0.0
 10
-16.21340253222547
 20
11.46705901283247
 30
0.0
 10
-16.02858620503895
 20
11.46032698039016
 30
0.0
 10
-15.86372324513074
 20
11.41895718187738
 30
0.0
 10
-15.70729145360532
 20
11.35350783597496
 30
0.0
 10
-15.55713142342436
 20
11.25896215147774
 30
0.0
 10
-15.46594084468176
 20
11.17341887212421
 30
0.0
 10
-15.41961653751323
 20
11.12996336165793
 30
0.0
  0
SPLINE
  5
E3
330
1F
100
AcDbEntity
  8
0
  6
Continuous
 62
     7
370
    25
100
AcDbSpline
210
0.0
220
0.0
230
1.0
 70
     8
 71
     3
 72
    10
 73
     6
 74
     0
 42
0.000000001
 43
0.00000001
 40
0.0
 40
0.0
 40
0.0
 40
0.0
 40
0.0614530654215504
 40
0.5308561715908596
 40
1.0
 40
1.0
 40
1.0
 40
1.0
 10
-1.620258807907401
 20
0.0165345974201658
 30
0.0
 10
-1.629796602064836
 20
0.0191184094771885
 30
0.0
 10
-1.712187884860987
 20
0.0414384120237233
 30
0.0
 10
-1.851426962107295
 20
0.1302733735326811
 30
0.0
 10
-1.967387790926871
 20
0.237455683736842
 30
0.0
 10
-2.025352187989599
 20
0.2910320340442467
 30
0.0
  0
SPLINE
  5
E5
330
1F
100
AcDbEntity
  8
0
  6
Continuous
 62
     7
370
    25
100
AcDbSpline
210
0.0
220
0.0
230
1.0
 70
     8
 71
     3
 72
    15
 73
    11
 74
     0
 42
0.000000001
 43
0.00000001
 40
0.0
 40
0.0
 40
0.0
 40
0.0
 40
0.0905134080550136
 40
0.1832978887143591
 40
0.2791247854929273
 40
0.379201554891187
 40
0.4952304384608185
 40
0.6378286821312396
 40
0.8052192178752893
 40
1.0
 40
1.0
 40
1.0
 40
1.0
 10
-2.025352187989599
 20
0.2910320340442467
 30
0.0
 10
-2.072556281160968
 20
0.3460011940658487
 30
0.0
 10
-2.168148865761571
 20
0.4573187457178368
 30
0.0
 10
-2.279952498849035
 20
0.6719493778824877
 30
0.0
 10
-2.37236666800783
 20
0.9168180207155229
 30
0.0
 10
-2.438017602393146
 20
1.209619145818416
 30
0.0
 10
-2.486200721853249
 20
1.563077057363034
 30
0.0
 10
-2.51674000947322
 20
1.996436858791586
 30
0.0
 10
-2.541072249431526
 20
2.515040717912924
 30
0.0
 10
-2.541544624823127
 20
2.893633332332365
 30
0.0
 10
-2.541798674891957
 20
3.097245716596267
 30
0.0
  0
SPLINE
  5
EC
330
1F
100
AcDbEntity
  8
0
  6
Continuous
 62
     7
370
    25
100
AcDbSpline
210
0.0
220
0.0
230
1.0
 70
     8
 71
     3
 72
    15
 73
    11
 74
     0
 42
0.000000001
 43
0.00000001
 40
0.0
 40
0.0
 40
0.0
 40
0.0
 40
0.1191683526885426
 40
0.2325867107909408
 40
0.3429306060743777
 40
0.4542016381530257
 40
0.5706920582844137
 40
0.7005567330753762
 40
0.8421791742984214
 40
1.0
 40
1.0
 40
1.0
 40
1.0
 10
-2.292088285620487
 20
15.12158880492699
 30
0.0
 10
-2.250866584757892
 20
15.23204686522083
 30
0.0
 10
-2.170412172151407
 20
15.44763327171616
 30
0.0
 10
-2.013229112581903
 20
15.74355835584833
 30
0.0
 10
-1.839306545546921
 20
16.01283358970776
 30
0.0
 10
-1.635751394591443
 20
16.24491276433702
 30
0.0
 10
-1.405344245986325
 20
16.45356154415153
 30
0.0
 10
-1.144576769664476
 20
16.64370040769204
 30
0.0
 10
-0.848334471148997
 20
16.81112969759355
 30
0.0
 10
-0.6398229478361493
 20
16.9044434727784
 30
0.0
 10
-0.5299274704206859
 20
16.95362426485381
 30
0.0
  0
SPLINE
  5
F0
330
1F
100
AcDbEntity
  8
0
  6
Continuous
 62
     7
370
    25
100
AcDbSpline
210
0.0
220
0.0
230
1.0
 70
     8
 71
     3
 72
     9
 73
     5
 74
     0
 42
0.000000001
 43
0.00000001
 40
0.0
 40
0.0
 40
0.0
 40
0.0
 40
0.5148856056339138
 40
1.0
 40
1.0
 40
1.0
 40
1.0
 10
-2.541798674891956
 20
12.53979104553697
 30
0.0
 10
-2.54148752991591
 20
12.73103322210451
 30
0.0
 10
-2.540883230683923
 20
13.10245975738721
 30
0.0
 10
-2.522392576701191
 20
13.47918289718852
 30
0.0
 10
-2.513422494292926
 20
13.66193671499692
 30
0.0
  0
SPLINE
  5
F3
330
1F
100
AcDbEntity
  8
0
  6
Continuous
 62
     7
370
    25
100
AcDbSpline
210
0.0
220
0.0
230
1.0
 70
     8
 71
     3
 72
    11
 73
     7
 74
     0
 42
0.000000001
 43
0.00000001
 40
0.0
 40
0.0
 40
0.0
 40
0.0
 40
0.3113189939557902
 40
0.5800361302823042
 40
0.8100714124393957
 40
1.0
 40
1.0
 40
1.0
 40
1.0
 10
-2.513422494292926
 20
13.66193671499692
 30
0.0
 10
-2.5049396810804
 20
13.8122514159532
 30
0.0
 10
-2.48913486915042
 20
14.09231128753176
 30
0.0
 10
-2.439111310371918
 20
14.48798133986508
 30
0.0
 10
-2.383486375280588
 20
14.82692805912225
 30
0.0
 10
-2.320550861059356
 20
15.02982754670452
 30
0.0
 10
-2.292088285620487
 20
15.12158880492699
 30
0.0
  0
SPLINE
  5
FC
330
1F
100
AcDbEntity
  8
0
  6
Continuous
 62
     7
370
    25
100
AcDbSpline
210
0.0
220
0.0
230
1.0
 70
     8
 71
     3
 72
    10
 73
     6
 74
     0
 42
0.000000001
 43
0.00000001
 40
0.0
 40
0.0
 40
0.0
 40
0.0
 40
0.0486592823069644
 40
0.5233713466607234
 40
1.0
 40
1.0
 40
1.0
 40
1.0
 10
-11.9774096660341
 20
-3.516774897246363
 30
0.0
 10
-11.98485059009106
 20
-3.514725628817346
 30
0.0
 10
-12.06488396213151
 20
-3.492684030040817
 30
0.0
 10
-12.20038366069077
 20
-3.401286112398014
 30
0.0
 10
-12.31992793389697
 20
-3.300766006156709
 30
0.0
 10
-12.37982048857587
 20
-3.250404698183373
 30
0.0
  0
SPLINE
  5
FE
330
1F
100
AcDbEntity
  8
0
  6
Continuous
 62
     7
370
    25
100
AcDbSpline
210
0.0
220
0.0
230
1.0
 70
     8
 71
     3
 72
    15
 73
    11
 74
     0
 42
0.000000001
 43
0.00000001
 40
0.0
 40
0.0
 40
0.0
 40
0.0
 40
0.0905565420474346
 40
0.1833852389745299
 40
0.2787812537808086
 40
0.3789057145731444
 40
0.494989891486514
 40
0.6376560900786847
 40
0.8051263954641084
 40
1.0
 40
1.0
 40
1.0
 40
1.0
 10
-12.37982048857587
 20
-3.250404698183373
 30
0.0
 10
-12.42695708522708
 20
-3.195373721427691
 30
0.0
 10
-12.52241298323166
 20
-3.083930985263408
 30
0.0
 10
-12.63508041769607
 20
-2.870632465097438
 30
0.0
 10
-12.72319638320235
 20
-2.62237505835598
 30
0.0
 10
-12.78993676855908
 20
-2.331111477835488
 30
0.0
 10
-12.83772885071197
 20
-1.977295155242732
 30
0.0
 10
-12.86840598024092
 20
-1.544061694861865
 30
0.0
 10
-12.89269172648761
 20
-1.025415221239033
 30
0.0
 10
-12.89317138850214
 20
-0.646829285481989
 30
0.0
 10
-12.89342935741833
 20
-0.443220493095801
 30
0.0
  0
SPLINE
  5
101
330
1F
100
AcDbEntity
  8
0
  6
Continuous
 62
     7
370
    25
100
AcDbSpline
210
0.0
220
0.0
230
1.0
 70
     8
 71
     3
 72
    11
 73
     7
 74
     0
 42
0.000000001
 43
0.00000001
 40
0.0
 40
0.0
 40
0.0
 40
0.0
 40
0.2914845352370479
 40
0.5828460427115897
 40
0.8742158054364318
 40
1.0
 40
1.0
 40
1.0
 40
1.0
 10
-16.90298367606135
 20
11.35370923472134
 30
0.0
 10
-16.80194757679967
 20
11.37975902953855
 30
0.0
 10
-16.59991802288939
 20
11.43184762425701
 30
0.0
 10
-16.30104095732306
 20
11.4667201654049
 30
0.0
 10
-16.05986196031633
 20
11.472203946359
 30
0.0
 10
-15.93040867078488
 20
11.42972386678062
 30
0.0
 10
-15.89137469430492
 20
11.41691487263972
 30
0.0
  0
LINE
  5
102
330
1F
100
AcDbEntity
  8
0
  6
Continuous
 62
     7
370
    25
100
AcDbLine
 10
14.8925266852
 20
8.3165606603
 30
0.0
 11
14.8925266852
 21
-1.1259846686
 31
0.0
  0
LINE
  5
103
330
1F
100
AcDbEntity
  8
0
  6
Continuous
 62
     7
370
    25
100
AcDbLine
 10
16.9043978896
 20
-5.5398178879
 30
0.0
 11
16.9043978896
 21
-5.7811608995
 31
0.0
  0
LINE
  5
104
330
1F
100
AcDbEntity
  8
0
  6
Continuous
 62
     7
370
    25
100
AcDbLine
 10
16.9043978896
 20
-5.7811608995
 30
0.0
 11
10.8829723665
 21
-3.7217120791
 31
0.0
  0
LINE
  5
105
330
1F
100
AcDbEntity
  8
0
  6
Continuous
 62
     7
370
    25
100
AcDbLine
 10
10.8829723665
 20
-3.7217120791
 30
0.0
 11
10.8829723665
 21
-3.4803690675
 31
0.0
  0
LINE
  5
106
330
1F
100
AcDbEntity
  8
0
  6
Continuous
 62
     7
370
    25
100
AcDbLine
 10
12.894843571
 20
-0.4427368036
 30
0.0
 11
12.894843571
 21
11.0097432939
 31
0.0
  0
LINE
  5
107
330
1F
100
AcDbEntity
  8
0
  6
Continuous
 62
     7
370
    25
100
AcDbLine
 10
12.894843571
 20
11.0097432939
 30
0.0
 11
7.9857643273
 21
-2.7308085703
 31
0.0
  0
LINE
  5
108
330
1F
100
AcDbEntity
  8
0
  6
Continuous
 62
     7
370
    25
100
AcDbLine
 10
7.9857643273
 20
-2.7308085703
 30
0.0
 11
7.7871310632
 21
-2.6628719928
 31
0.0
  0
LINE
  5
109
330
1F
100
AcDbEntity
  8
0
  6
Continuous
 62
     7
370
    25
100
AcDbLine
 10
7.7871310632
 20
-2.6628719928
 30
0.0
 11
2.9064280001
 21
14.1959525611
 31
0.0
  0
LINE
  5
10A
330
1F
100
AcDbEntity
  8
0
  6
Continuous
 62
     7
370
    25
100
AcDbLine
 10
2.9064280001
 20
14.1959525611
 30
0.0
 11
2.9064280001
 21
2.9735025216
 31
0.0
  0
LINE
  5
10B
330
1F
100
AcDbEntity
  8
0
  6
Continuous
 62
     7
370
    25
100
AcDbLine
 10
4.9069487324
 20
-1.4364486076
 30
0.0
 11
4.9069487324
 21
-1.6777916192
 31
0.0
  0
LINE
  5
10C
330
1F
100
AcDbEntity
  8
0
  6
Continuous
 62
     7
370
    25
100
AcDbLine
 10
4.9069487324
 20
-1.6777916192
 30
0.0
 11
0.531341684
 21
-0.1812458694
 31
0.0
  0
LINE
  5
10D
330
1F
100
AcDbEntity
  8
0
  6
Continuous
 62
     7
370
    25
100
AcDbLine
 10
0.531341684
 20
-0.1812458694
 30
0.0
 11
0.531341684
 21
0.0600971422
 31
0.0
  0
LINE
  5
10E
330
1F
100
AcDbEntity
  8
0
  6
Continuous
 62
     7
370
    25
100
AcDbLine
 10
2.5432128885
 20
3.0977294061
 30
0.0
 11
2.5432128885
 21
12.5402747351
 31
0.0
  0
LINE
  5
10F
330
1F
100
AcDbEntity
  8
0
  6
Continuous
 62
     7
370
    25
100
AcDbLine
 10
0.531341684
 20
16.9541079544
 30
0.0
 11
0.531341684
 21
17.195450966
 31
0.0
  0
LINE
  5
110
330
1F
100
AcDbEntity
  8
0
  6
Continuous
 62
     7
370
    25
100
AcDbLine
 10
0.531341684
 20
17.195450966
 30
0.0
 11
4.6600759611
 21
15.7833406768
 31
0.0
  0
LINE
  5
111
330
1F
100
AcDbEntity
  8
0
  6
Continuous
 62
     7
370
    25
100
AcDbLine
 10
4.6600759611
 20
15.7833406768
 30
0.0
 11
8.7519212035
 21
0.7441960404
 31
0.0
  0
LINE
  5
112
330
1F
100
AcDbEntity
  8
0
  6
Continuous
 62
     7
370
    25
100
AcDbLine
 10
8.7519212035
 20
0.7441960404
 30
0.0
 11
12.9941602031
 21
12.9329159898
 31
0.0
  0
LINE
  5
113
330
1F
100
AcDbEntity
  8
0
  6
Continuous
 62
     7
370
    25
100
AcDbLine
 10
12.9941602031
 20
12.9329159898
 30
0.0
 11
16.9043978896
 21
11.5955359358
 31
0.0
  0
LINE
  5
114
330
1F
100
AcDbEntity
  8
0
  6
Continuous
 62
     7
370
    25
100
AcDbLine
 10
16.9043978896
 20
11.5955359358
 30
0.0
 11
16.9043978896
 21
11.3541929242
 31
0.0
  0
LINE
  5
115
330
1F
100
AcDbEntity
  8
0
  6
Continuous
 62
     7
370
    25
100
AcDbLine
 10
0.531341684
 20
-0.1812458694
 30
0.0
 11
0.5306345772
 21
-0.1814877141
 31
0.0
  0
LINE
  5
116
330
1F
100
AcDbEntity
  8
0
  6
Continuous
 62
     7
370
    25
100
AcDbLine
 10
4.9069487324
 20
-1.6777916192
 30
0.0
 11
4.9062416256
 21
-1.678033464
 31
0.0
  0
LINE
  5
117
330
1F
100
AcDbEntity
  8
0
  6
Continuous
 62
     7
370
    25
100
AcDbLine
 10
4.9062416256
 20
-1.678033464
 30
0.0
 11
0.5306345772
 21
-0.1814877141
 31
0.0
  0
LINE
  5
118
330
1F
100
AcDbEntity
  8
0
  6
Continuous
 62
     7
370
    25
100
AcDbLine
 10
0.531341684
 20
0.0600971422
 30
0.0
 11
0.5306345772
 21
0.0598552975
 31
0.0
  0
LINE
  5
119
330
1F
100
AcDbEntity
  8
0
  6
Continuous
 62
     7
370
    25
100
AcDbLine
 10
0.5306345772
 20
-0.1814877141
 30
0.0
 11
0.5306345772
 21
0.0598552975
 31
0.0
  0
LINE
  5
11A
330
1F
100
AcDbEntity
  8
0
  6
Continuous
 62
     7
370
    25
100
AcDbLine
 10
2.0267664016
 20
0.2915157236
 30
0.0
 11
2.0260592948
 21
0.2912738788
 31
0.0
  0
LINE
  5
11B
330
1F
100
AcDbEntity
  8
0
  6
Continuous
 62
     7
370
    25
100
AcDbLine
 10
2.5432128885
 20
3.0977294061
 30
0.0
 11
2.5425057817
 21
3.0974875614
 31
0.0
  0
LINE
  5
11C
330
1F
100
AcDbEntity
  8
0
  6
Continuous
 62
     7
370
    25
100
AcDbLine
 10
7.7871310632
 20
-2.6628719928
 30
0.0
 11
7.7864239564
 21
-2.6631138376
 31
0.0
  0
LINE
  5
11D
330
1F
100
AcDbEntity
  8
0
  6
Continuous
 62
     7
370
    25
100
AcDbLine
 10
7.7864239564
 20
-2.6631138376
 30
0.0
 11
2.9064280001
 21
14.1932682426
 31
0.0
  0
LINE
  5
11E
330
1F
100
AcDbEntity
  8
0
  6
Continuous
 62
     7
370
    25
100
AcDbLine
 10
2.5432128885
 20
12.5402747351
 30
0.0
 11
2.5425057817
 21
12.5400328903
 31
0.0
  0
LINE
  5
11F
330
1F
100
AcDbEntity
  8
0
  6
Continuous
 62
     7
370
    25
100
AcDbLine
 10
2.5425057817
 20
3.0974875614
 30
0.0
 11
2.5425057817
 21
12.5400328903
 31
0.0
  0
LINE
  5
120
330
1F
100
AcDbEntity
  8
0
  6
Continuous
 62
     7
370
    25
100
AcDbLine
 10
0.531341684
 20
16.9541079544
 30
0.0
 11
0.5306345772
 21
16.9538661096
 31
0.0
  0
LINE
  5
121
330
1F
100
AcDbEntity
  8
0
  6
Continuous
 62
     7
370
    25
100
AcDbLine
 10
2.2935024992
 20
15.1220724945
 30
0.0
 11
2.2927953924
 21
15.1218306497
 31
0.0
  0
LINE
  5
122
330
1F
100
AcDbEntity
  8
0
  6
Continuous
 62
     7
370
    25
100
AcDbLine
 10
0.531341684
 20
17.195450966
 30
0.0
 11
0.5306345772
 21
17.1952091212
 31
0.0
  0
LINE
  5
123
330
1F
100
AcDbEntity
  8
0
  6
Continuous
 62
     7
370
    25
100
AcDbLine
 10
0.5306345772
 20
16.9538661096
 30
0.0
 11
0.5306345772
 21
17.1952091212
 31
0.0
  0
LINE
  5
124
330
1F
100
AcDbEntity
  8
0
  6
Continuous
 62
     7
370
    25
100
AcDbLine
 10
2.5148367079
 20
13.6624204045
 30
0.0
 11
2.5141296011
 21
13.6621785598
 31
0.0
  0
LINE
  5
125
330
1F
100
AcDbEntity
  8
0
  6
Continuous
 62
     7
370
    25
100
AcDbLine
 10
7.9857643273
 20
-2.7308085703
 30
0.0
 11
7.9850572206
 21
-2.731050415
 31
0.0
  0
LINE
  5
126
330
1F
100
AcDbEntity
  8
0
  6
Continuous
 62
     7
370
    25
100
AcDbLine
 10
7.9850572206
 20
-2.731050415
 30
0.0
 11
7.7864239564
 21
-2.6631138376
 31
0.0
  0
LINE
  5
127
330
1F
100
AcDbEntity
  8
0
  6
Continuous
 62
     7
370
    25
100
AcDbLine
 10
12.9941602031
 20
12.9329159898
 30
0.0
 11
12.9934530963
 21
12.9326741451
 31
0.0
  0
LINE
  5
128
330
1F
100
AcDbEntity
  8
0
  6
Continuous
 62
     7
370
    25
100
AcDbLine
 10
8.751647892
 20
0.7452005679
 30
0.0
 11
12.9934530963
 21
12.9326741451
 31
0.0
  0
LINE
  5
129
330
1F
100
AcDbEntity
  8
0
  6
Continuous
 62
     7
370
    25
100
AcDbLine
 10
10.8829723665
 20
-3.4803690675
 30
0.0
 11
10.8822652597
 21
-3.4806109122
 31
0.0
  0
LINE
  5
12A
330
1F
100
AcDbEntity
  8
0
  6
Continuous
 62
     7
370
    25
100
AcDbLine
 10
10.8829723665
 20
-3.7217120791
 30
0.0
 11
10.8822652597
 21
-3.7219539238
 31
0.0
  0
LINE
  5
12B
330
1F
100
AcDbEntity
  8
0
  6
Continuous
 62
     7
370
    25
100
AcDbLine
 10
10.8822652597
 20
-3.7219539238
 30
0.0
 11
10.8822652597
 21
-3.4806109122
 31
0.0
  0
LINE
  5
12C
330
1F
100
AcDbEntity
  8
0
  6
Continuous
 62
     7
370
    25
100
AcDbLine
 10
16.9043978896
 20
-5.7811608995
 30
0.0
 11
16.9036907828
 21
-5.7814027443
 31
0.0
  0
LINE
  5
12D
330
1F
100
AcDbEntity
  8
0
  6
Continuous
 62
     7
370
    25
100
AcDbLine
 10
16.9036907828
 20
-5.7814027443
 30
0.0
 11
10.8822652597
 21
-3.7219539238
 31
0.0
  0
LINE
  5
12E
330
1F
100
AcDbEntity
  8
0
  6
Continuous
 62
     7
370
    25
100
AcDbLine
 10
12.3812347021
 20
-3.2499210087
 30
0.0
 11
12.3805275954
 21
-3.2501628534
 31
0.0
  0
LINE
  5
12F
330
1F
100
AcDbEntity
  8
0
  6
Continuous
 62
     7
370
    25
100
AcDbLine
 10
12.894843571
 20
-0.4427368036
 30
0.0
 11
12.8941364642
 21
-0.4429786483
 31
0.0
  0
LINE
  5
130
330
1F
100
AcDbEntity
  8
0
  6
Continuous
 62
     7
370
    25
100
AcDbLine
 10
12.8941364642
 20
-0.4429786483
 30
0.0
 11
12.8941364642
 21
11.0077640964
 31
0.0
  0
LINE
  5
131
330
1F
100
AcDbEntity
  8
0
  6
Continuous
 62
     7
370
    25
100
AcDbLine
 10
16.9043978896
 20
11.3541929242
 30
0.0
 11
16.9036907828
 21
11.3539510795
 31
0.0
  0
LINE
  5
132
330
1F
100
AcDbEntity
  8
0
  6
Continuous
 62
     7
370
    25
100
AcDbLine
 10
-0.5299274704
 20
-0.1817295589
 30
0.0
 11
-0.5306345772
 21
-0.1814877141
 31
0.0
  0
LINE
  5
133
330
1F
100
AcDbEntity
  8
0
  6
Continuous
 62
     7
370
    25
100
AcDbLine
 10
-4.9055345188
 20
-1.6782753087
 30
0.0
 11
-0.5299274704
 21
-0.1817295589
 31
0.0
  0
LINE
  5
134
330
1F
100
AcDbEntity
  8
0
  6
Continuous
 62
     7
370
    25
100
AcDbLine
 10
-4.9055345188
 20
-1.6782753087
 30
0.0
 11
-4.9062416256
 21
-1.678033464
 31
0.0
  0
LINE
  5
135
330
1F
100
AcDbEntity
  8
0
  6
Continuous
 62
     7
370
    25
100
AcDbLine
 10
-4.9062416256
 20
-1.678033464
 30
0.0
 11
-0.5306345772
 21
-0.1814877141
 31
0.0
  0
LINE
  5
136
330
1F
100
AcDbEntity
  8
0
  6
Continuous
 62
     7
370
    25
100
AcDbLine
 10
-0.5299274704
 20
0.0596134527
 30
0.0
 11
-0.5306345772
 21
0.0598552975
 31
0.0
  0
LINE
  5
137
330
1F
100
AcDbEntity
  8
0
  6
Continuous
 62
     7
370
    25
100
AcDbLine
 10
-0.5299274704
 20
-0.1817295589
 30
0.0
 11
-0.5299274704
 21
0.0596134527
 31
0.0
  0
LINE
  5
138
330
1F
100
AcDbEntity
  8
0
  6
Continuous
 62
     7
370
    25
100
AcDbLine
 10
-0.5306345772
 20
-0.1814877141
 30
0.0
 11
-0.5306345772
 21
0.0598552975
 31
0.0
  0
LINE
  5
139
330
1F
100
AcDbEntity
  8
0
  6
Continuous
 62
     7
370
    25
100
AcDbLine
 10
-12.9934530963
 20
12.9326741451
 30
0.0
 11
-16.9036907828
 21
11.5952940911
 31
0.0
  0
LINE
  5
13A
330
1F
100
AcDbEntity
  8
0
  6
Continuous
 62
     7
370
    25
100
AcDbLine
 10
-8.7512140967
 20
0.7439541956
 30
0.0
 11
-12.9934530963
 21
12.9326741451
 31
0.0
  0
LINE
  5
13B
330
1F
100
AcDbEntity
  8
0
  6
Continuous
 62
     7
370
    25
100
AcDbLine
 10
-4.6593688544
 20
15.783098832
 30
0.0
 11
-8.7512140967
 21
0.7439541956
 31
0.0
  0
LINE
  5
13C
330
1F
100
AcDbEntity
  8
0
  6
Continuous
 62
     7
370
    25
100
AcDbLine
 10
-0.5306345772
 20
17.1952091212
 30
0.0
 11
-4.6593688544
 21
15.783098832
 31
0.0
  0
LINE
  5
13D
330
1F
100
AcDbEntity
  8
0
  6
Continuous
 62
     7
370
    25
100
AcDbLine
 10
-0.5306345772
 20
16.9538661096
 30
0.0
 11
-0.5306345772
 21
17.1952091212
 31
0.0
  0
LINE
  5
13E
330
1F
100
AcDbEntity
  8
0
  6
Continuous
 62
     7
370
    25
100
AcDbLine
 10
-2.5425057817
 20
3.0974875614
 30
0.0
 11
-2.5425057817
 21
12.5400328903
 31
0.0
  0
LINE
  5
13F
330
1F
100
AcDbEntity
  8
0
  6
Continuous
 62
     7
370
    25
100
AcDbLine
 10
-4.9062416256
 20
-1.4366904524
 30
0.0
 11
-4.9062416256
 21
-1.678033464
 31
0.0
  0
LINE
  5
140
330
1F
100
AcDbEntity
  8
0
  6
Continuous
 62
     7
370
    25
100
AcDbLine
 10
-2.9057208933
 20
14.1957107163
 30
0.0
 11
-2.9057208933
 21
2.9732606768
 31
0.0
  0
LINE
  5
141
330
1F
100
AcDbEntity
  8
0
  6
Continuous
 62
     7
370
    25
100
AcDbLine
 10
-7.7864239564
 20
-2.6631138376
 30
0.0
 11
-2.9057208933
 21
14.1957107163
 31
0.0
  0
LINE
  5
142
330
1F
100
AcDbEntity
  8
0
  6
Continuous
 62
     7
370
    25
100
AcDbLine
 10
-7.9850572206
 20
-2.731050415
 30
0.0
 11
-7.7864239564
 21
-2.6631138376
 31
0.0
  0
LINE
  5
143
330
1F
100
AcDbEntity
  8
0
  6
Continuous
 62
     7
370
    25
100
AcDbLine
 10
-12.8941364642
 20
11.0095014491
 30
0.0
 11
-7.9850572206
 21
-2.731050415
 31
0.0
  0
LINE
  5
144
330
1F
100
AcDbEntity
  8
0
  6
Continuous
 62
     7
370
    25
100
AcDbLine
 10
-12.8941364642
 20
-0.4429786483
 30
0.0
 11
-12.8941364642
 21
11.0095014491
 31
0.0
  0
LINE
  5
145
330
1F
100
AcDbEntity
  8
0
  6
Continuous
 62
     7
370
    25
100
AcDbLine
 10
-10.8822652597
 20
-3.7219539238
 30
0.0
 11
-10.8822652597
 21
-3.4806109122
 31
0.0
  0
LINE
  5
146
330
1F
100
AcDbEntity
  8
0
  6
Continuous
 62
     7
370
    25
100
AcDbLine
 10
-16.9036907828
 20
-5.7814027443
 30
0.0
 11
-10.8822652597
 21
-3.7219539238
 31
0.0
  0
LINE
  5
147
330
1F
100
AcDbEntity
  8
0
  6
Continuous
 62
     7
370
    25
100
AcDbLine
 10
-16.9036907828
 20
-5.5400597327
 30
0.0
 11
-16.9036907828
 21
-5.7814027443
 31
0.0
  0
LINE
  5
148
330
1F
100
AcDbEntity
  8
0
  6
Continuous
 62
     7
370
    25
100
AcDbLine
 10
-14.8918195784
 20
8.3163188156
 30
0.0
 11
-14.8918195784
 21
-1.1262265134
 31
0.0
  0
LINE
  5
149
330
1F
100
AcDbEntity
  8
0
  6
Continuous
 62
     7
370
    25
100
AcDbLine
 10
-16.9036907828
 20
11.5952940911
 30
0.0
 11
-16.9036907828
 21
11.3539510795
 31
0.0
  0
LINE
  5
14A
330
1F
100
AcDbEntity
  8
0
  6
Continuous
 62
     7
370
    25
100
AcDbLine
 10
-2.025352188
 20
0.291032034
 30
0.0
 11
-2.0260592948
 21
0.2912738788
 31
0.0
  0
LINE
  5
14B
330
1F
100
AcDbEntity
  8
0
  6
Continuous
 62
     7
370
    25
100
AcDbLine
 10
-2.5417986749
 20
3.0972457166
 30
0.0
 11
-2.5425057817
 21
3.0974875614
 31
0.0
  0
LINE
  5
14C
330
1F
100
AcDbEntity
  8
0
  6
Continuous
 62
     7
370
    25
100
AcDbLine
 10
-7.7857168496
 20
-2.6633556823
 30
0.0
 11
-7.7864239564
 21
-2.6631138376
 31
0.0
  0
LINE
  5
14D
330
1F
100
AcDbEntity
  8
0
  6
Continuous
 62
     7
370
    25
100
AcDbLine
 10
-7.7857168496
 20
-2.6633556823
 30
0.0
 11
-2.9057208933
 21
14.1930263978
 31
0.0
  0
LINE
  5
14E
330
1F
100
AcDbEntity
  8
0
  6
Continuous
 62
     7
370
    25
100
AcDbLine
 10
-2.5417986749
 20
12.5397910455
 30
0.0
 11
-2.5425057817
 21
12.5400328903
 31
0.0
  0
LINE
  5
14F
330
1F
100
AcDbEntity
  8
0
  6
Continuous
 62
     7
370
    25
100
AcDbLine
 10
-2.5417986749
 20
3.0972457166
 30
0.0
 11
-2.5417986749
 21
12.5397910455
 31
0.0
  0
LINE
  5
150
330
1F
100
AcDbEntity
  8
0
  6
Continuous
 62
     7
370
    25
100
AcDbLine
 10
-0.5299274704
 20
16.9536242649
 30
0.0
 11
-0.5306345772
 21
16.9538661096
 31
0.0
  0
LINE
  5
151
330
1F
100
AcDbEntity
  8
0
  6
Continuous
 62
     7
370
    25
100
AcDbLine
 10
-2.2920882856
 20
15.1215888049
 30
0.0
 11
-2.2927953924
 21
15.1218306497
 31
0.0
  0
LINE
  5
152
330
1F
100
AcDbEntity
  8
0
  6
Continuous
 62
     7
370
    25
100
AcDbLine
 10
-0.5299274704
 20
17.1949672765
 30
0.0
 11
-0.5306345772
 21
17.1952091212
 31
0.0
  0
LINE
  5
153
330
1F
100
AcDbEntity
  8
0
  6
Continuous
 62
     7
370
    25
100
AcDbLine
 10
-0.5299274704
 20
16.9536242649
 30
0.0
 11
-0.5299274704
 21
17.1949672765
 31
0.0
  0
LINE
  5
154
330
1F
100
AcDbEntity
  8
0
  6
Continuous
 62
     7
370
    25
100
AcDbLine
 10
-2.5134224943
 20
13.661936715
 30
0.0
 11
-2.5141296011
 21
13.6621785598
 31
0.0
  0
LINE
  5
155
330
1F
100
AcDbEntity
  8
0
  6
Continuous
 62
     7
370
    25
100
AcDbLine
 10
-7.9843501138
 20
-2.7312922598
 30
0.0
 11
-7.9850572206
 21
-2.731050415
 31
0.0
  0
LINE
  5
156
330
1F
100
AcDbEntity
  8
0
  6
Continuous
 62
     7
370
    25
100
AcDbLine
 10
-7.9843501138
 20
-2.7312922598
 30
0.0
 11
-7.7857168496
 21
-2.6633556823
 31
0.0
  0
LINE
  5
157
330
1F
100
AcDbEntity
  8
0
  6
Continuous
 62
     7
370
    25
100
AcDbLine
 10
-12.9927459895
 20
12.9324323003
 30
0.0
 11
-12.9934530963
 21
12.9326741451
 31
0.0
  0
LINE
  5
158
330
1F
100
AcDbEntity
  8
0
  6
Continuous
 62
     7
370
    25
100
AcDbLine
 10
-8.7509407852
 20
0.7449587232
 30
0.0
 11
-12.9927459895
 21
12.9324323003
 31
0.0
  0
LINE
  5
159
330
1F
100
AcDbEntity
  8
0
  6
Continuous
 62
     7
370
    25
100
AcDbLine
 10
-10.8815581529
 20
-3.7221957686
 30
0.0
 11
-10.8822652597
 21
-3.7219539238
 31
0.0
  0
LINE
  5
15A
330
1F
100
AcDbEntity
  8
0
  6
Continuous
 62
     7
370
    25
100
AcDbLine
 10
-16.9029836761
 20
-5.781644589
 30
0.0
 11
-16.9036907828
 21
-5.7814027443
 31
0.0
  0
LINE
  5
15B
330
1F
100
AcDbEntity
  8
0
  6
Continuous
 62
     7
370
    25
100
AcDbLine
 10
-16.9029836761
 20
-5.781644589
 30
0.0
 11
-10.8815581529
 21
-3.7221957686
 31
0.0
  0
LINE
  5
15C
330
1F
100
AcDbEntity
  8
0
  6
Continuous
 62
     7
370
    25
100
AcDbLine
 10
-10.8815581529
 20
-3.480852757
 30
0.0
 11
-10.8822652597
 21
-3.4806109122
 31
0.0
  0
LINE
  5
15D
330
1F
100
AcDbEntity
  8
0
  6
Continuous
 62
     7
370
    25
100
AcDbLine
 10
-10.8815581529
 20
-3.7221957686
 30
0.0
 11
-10.8815581529
 21
-3.480852757
 31
0.0
  0
LINE
  5
15E
330
1F
100
AcDbEntity
  8
0
  6
Continuous
 62
     7
370
    25
100
AcDbLine
 10
-12.3798204886
 20
-3.2504046982
 30
0.0
 11
-12.3805275954
 21
-3.2501628534
 31
0.0
  0
LINE
  5
15F
330
1F
100
AcDbEntity
  8
0
  6
Continuous
 62
     7
370
    25
100
AcDbLine
 10
-12.8934293574
 20
-0.4432204931
 30
0.0
 11
-12.8941364642
 21
-0.4429786483
 31
0.0
  0
LINE
  5
160
330
1F
100
AcDbEntity
  8
0
  6
Continuous
 62
     7
370
    25
100
AcDbLine
 10
-12.8934293574
 20
-0.4432204931
 30
0.0
 11
-12.8934293574
 21
11.0075222516
 31
0.0
  0
LINE
  5
161
330
1F
100
AcDbEntity
  8
0
  6
Continuous
 62
     7
370
    25
100
AcDbLine
 10
-16.9029836761
 20
11.3537092347
 30
0.0
 11
-16.9036907828
 21
11.3539510795
 31
0.0
  0
MTEXT
  5
163
330
1F
100
AcDbEntity
  8
0
  6
Continuous
 62
     7
100
AcDbMText
 10
-16.9036907828
 20
-6.8012109807
 30
0.0
 40
4.83362
 41
0.0
 71
     1
 72
     1
  1
SOLIDWORKS Educational Product.
  7
SLDTEXTSTYLE0
 73
     1
 44
1.0
  0
MTEXT
  5
164
330
1F
100
AcDbEntity
  8
0
  6
Continuous
 62
     7
100
AcDbMText
 10
-16.9036907828
 20
-14.0516409807
 30
0.0
 40
4.83362
 41
0.0
 71
     1
 72
     1
  1
For Instructional Use Only.
  7
SLDTEXTSTYLE0
 73
     1
 44
1.0
  0
ENDSEC
  0
SECTION
  2
OBJECTS
  0
DICTIONARY
  5
C
330
0
100
AcDbDictionary
281
     1
  3
ACAD_GROUP
350
D
  3
ACAD_LAYOUT
350
1A
  3
ACAD_MLINESTYLE
350
17
  3
ACAD_PLOTSETTINGS
350
19
  3
ACAD_PLOTSTYLENAME
350
E
  3
ACAD_SCALELIST
350
47
  0
DICTIONARY
  5
D
102
{ACAD_REACTORS
330
C
102
}
330
C
100
AcDbDictionary
281
     1
  0
DICTIONARY
  5
1A
102
{ACAD_REACTORS
330
C
102
}
330
C
100
AcDbDictionary
281
     1
  3
Layout1
350
1E
  3
Layout2
350
26
  3
Model
350
22
  0
DICTIONARY
  5
17
102
{ACAD_REACTORS
330
C
102
}
330
C
100
AcDbDictionary
281
     1
  3
Standard
350
18
  0
DICTIONARY
  5
19
102
{ACAD_REACTORS
330
C
102
}
330
C
100
AcDbDictionary
281
     1
  0
ACDBDICTIONARYWDFLT
  5
E
102
{ACAD_REACTORS
330
C
102
}
330
C
100
AcDbDictionary
281
     1
  3
Normal
350
F
100
AcDbDictionaryWithDefault
340
F
  0
DICTIONARY
  5
47
102
{ACAD_REACTORS
330
C
102
}
330
C
100
AcDbDictionary
281
     1
  3
A0
350
48
  3
A1
350
49
  3
A2
350
4A
  3
A3
350
4B
  3
A4
350
4C
  3
A5
350
4D
  3
A6
350
4E
  3
A7
350
4F
  3
A8
350
50
  3
A9
350
51
  3
B0
350
52
  3
B1
350
53
  3
B2
350
54
  3
B3
350
55
  3
B4
350
56
  3
B5
350
57
  3
B6
350
58
  3
B7
350
59
  3
B8
350
5A
  3
B9
350
5B
  3
C0
350
5C
  3
C1
350
5D
  3
C2
350
5E
  3
C3
350
5F
  3
C4
350
60
  3
C5
350
61
  3
C6
350
62
  3
C7
350
63
  3
C8
350
64
  3
C9
350
65
  3
D0
350
66
  3
D1
350
67
  3
D2
350
68
  0
LAYOUT
  5
1E
102
{ACAD_REACTORS
330
1A
102
}
330
1A
100
AcDbPlotSettings
  1

  2
none_device
  4

  6

 40
0.0
 41
0.0
 42
0.0
 43
0.0
 44
0.0
 45
0.0
 46
0.0
 47
0.0
 48
0.0
 49
0.0
140
0.0
141
0.0
142
1.0
143
1.0
 70
   688
 72
     1
 73
     0
 74
     5
  7

 75
    16
147
1.0
148
0.0
149
0.0
100
AcDbLayout
  1
Layout1
 70
     1
 71
     1
 10
0.0
 20
0.0
 11
420.0
 21
297.0
 12
0.0
 22
0.0
 32
0.0
 14
1.0000000000E+20
 24
1.0000000000E+20
 34
1.0000000000E+20
 15
-1.0000000000E+20
 25
-1.0000000000E+20
 35
-1.0000000000E+20
146
0.0
 13
0.0
 23
0.0
 33
0.0
 16
1.0
 26
0.0
 36
0.0
 17
0.0
 27
1.0
 37
0.0
 76
     0
330
1B
  0
LAYOUT
  5
26
102
{ACAD_REACTORS
330
1A
102
}
330
1A
100
AcDbPlotSettings
  1

  2
none_device
  4

  6

 40
0.0
 41
0.0
 42
0.0
 43
0.0
 44
0.0
 45
0.0
 46
0.0
 47
0.0
 48
0.0
 49
0.0
140
0.0
141
0.0
142
1.0
143
1.0
 70
   688
 72
     1
 73
     0
 74
     5
  7

 75
    16
147
1.0
148
0.0
149
0.0
100
AcDbLayout
  1
Layout2
 70
     1
 71
     2
 10
0.0
 20
0.0
 11
0.0
 21
0.0
 12
0.0
 22
0.0
 32
0.0
 14
0.0
 24
0.0
 34
0.0
 15
0.0
 25
0.0
 35
0.0
146
0.0
 13
0.0
 23
0.0
 33
0.0
 16
1.0
 26
0.0
 36
0.0
 17
0.0
 27
1.0
 37
0.0
 76
     0
330
23
  0
LAYOUT
  5
22
102
{ACAD_REACTORS
330
1A
102
}
330
1A
100
AcDbPlotSettings
  1

  2
none_device
  4
ANSI_A_(11.00_x_8.50_Inches)
  6

 40
6.35
 41
19.05
 42
6.35000508
 43
19.05000254
 44
279.4
 45
215.9
 46
133.3471048094
 47
42.2081055963
 48
0.0
 49
0.0
140
0.0
141
0.0
142
0.3221122645
143
1.0
 70
  1696
 72
     0
 73
     0
 74
     0
  7

 75
     0
147
0.0179189148
148
-1300.4909072572
149
0.0
100
AcDbLayout
  1
Model
 70
     1
 71
     0
 10
0.0
 20
0.0
 11
420.0
 21
297.0
 12
0.0
 22
0.0
 32
0.0
 14
-16.9036907828
 24
-5.781644589
 34
0.0
 15
16.9043978896
 25
17.195450966
 35
0.0
146
0.0
 13
0.0
 23
0.0
 33
0.0
 16
1.0
 26
0.0
 36
0.0
 17
0.0
 27
1.0
 37
0.0
 76
     0
330
1F
331
29
  0
MLINESTYLE
  5
18
102
{ACAD_REACTORS
330
17
102
}
330
17
100
AcDbMlineStyle
  2
Standard
 70
     0
  3

 62
   256
 51
90.0
 52
90.0
 71
     2
 49
0.5
 62
   256
  6
BYLAYER
 49
-0.5
 62
   256
  6
BYLAYER
  0
ACDBPLACEHOLDER
  5
F
102
{ACAD_REACTORS
330
E
102
}
330
E
  0
SCALE
  5
48
102
{ACAD_REACTORS
330
47
102
}
330
47
100
AcDbScale
 70
     0
300
1:1
140
1.0
141
1.0
290
     1
  0
SCALE
  5
49
102
{ACAD_REACTORS
330
47
102
}
330
47
100
AcDbScale
 70
     0
300
1:2
140
1.0
141
2.0
290
     0
  0
SCALE
  5
4A
102
{ACAD_REACTORS
330
47
102
}
330
47
100
AcDbScale
 70
     0
300
1:4
140
1.0
141
4.0
290
     0
  0
SCALE
  5
4B
102
{ACAD_REACTORS
330
47
102
}
330
47
100
AcDbScale
 70
     0
300
1:5
140
1.0
141
5.0
290
     0
  0
SCALE
  5
4C
102
{ACAD_REACTORS
330
47
102
}
330
47
100
AcDbScale
 70
     0
300
1:8
140
1.0
141
8.0
290
     0
  0
SCALE
  5
4D
102
{ACAD_REACTORS
330
47
102
}
330
47
100
AcDbScale
 70
     0
300
1:10
140
1.0
141
10.0
290
     0
  0
SCALE
  5
4E
102
{ACAD_REACTORS
330
47
102
}
330
47
100
AcDbScale
 70
     0
300
1:16
140
1.0
141
16.0
290
     0
  0
SCALE
  5
4F
102
{ACAD_REACTORS
330
47
102
}
330
47
100
AcDbScale
 70
     0
300
1:20
140
1.0
141
20.0
290
     0
  0
SCALE
  5
50
102
{ACAD_REACTORS
330
47
102
}
330
47
100
AcDbScale
 70
     0
300
1:30
140
1.0
141
30.0
290
     0
  0
SCALE
  5
51
102
{ACAD_REACTORS
330
47
102
}
330
47
100
AcDbScale
 70
     0
300
1:40
140
1.0
141
40.0
290
     0
  0
SCALE
  5
52
102
{ACAD_REACTORS
330
47
102
}
330
47
100
AcDbScale
 70
     0
300
1:50
140
1.0
141
50.0
290
     0
  0
SCALE
  5
53
102
{ACAD_REACTORS
330
47
102
}
330
47
100
AcDbScale
 70
     0
300
1:100
140
1.0
141
100.0
290
     0
  0
SCALE
  5
54
102
{ACAD_REACTORS
330
47
102
}
330
47
100
AcDbScale
 70
     0
300
2:1
140
2.0
141
1.0
290
     0
  0
SCALE
  5
55
102
{ACAD_REACTORS
330
47
102
}
330
47
100
AcDbScale
 70
     0
300
4:1
140
4.0
141
1.0
290
     0
  0
SCALE
  5
56
102
{ACAD_REACTORS
330
47
102
}
330
47
100
AcDbScale
 70
     0
300
8:1
140
8.0
141
1.0
290
     0
  0
SCALE
  5
57
102
{ACAD_REACTORS
330
47
102
}
330
47
100
AcDbScale
 70
     0
300
10:1
140
10.0
141
1.0
290
     0
  0
SCALE
  5
58
102
{ACAD_REACTORS
330
47
102
}
330
47
100
AcDbScale
 70
     0
300
100:1
140
100.0
141
1.0
290
     0
  0
SCALE
  5
59
102
{ACAD_REACTORS
330
47
102
}
330
47
100
AcDbScale
 70
     0
300
1/128" = 1'-0"
140
0.0078125
141
12.0
290
     0
  0
SCALE
  5
5A
102
{ACAD_REACTORS
330
47
102
}
330
47
100
AcDbScale
 70
     0
300
1/64" = 1'-0"
140
0.015625
141
12.0
290
     0
  0
SCALE
  5
5B
102
{ACAD_REACTORS
330
47
102
}
330
47
100
AcDbScale
 70
     0
300
1/32" = 1'-0"
140
0.03125
141
12.0
290
     0
  0
SCALE
  5
5C
102
{ACAD_REACTORS
330
47
102
}
330
47
100
AcDbScale
 70
     0
300
1/16" = 1'-0"
140
0.0625
141
12.0
290
     0
  0
SCALE
  5
5D
102
{ACAD_REACTORS
330
47
102
}
330
47
100
AcDbScale
 70
     0
300
3/32" = 1'-0"
140
0.09375
141
12.0
290
     0
  0
SCALE
  5
5E
102
{ACAD_REACTORS
330
47
102
}
330
47
100
AcDbScale
 70
     0
300
1/8" = 1'-0"
140
0.125
141
12.0
290
     0
  0
SCALE
  5
5F
102
{ACAD_REACTORS
330
47
102
}
330
47
100
AcDbScale
 70
     0
300
3/16" = 1'-0"
140
0.1875
141
12.0
290
     0
  0
SCALE
  5
60
102
{ACAD_REACTORS
330
47
102
}
330
47
100
AcDbScale
 70
     0
300
1/4" = 1'-0"
140
0.25
141
12.0
290
     0
  0
SCALE
  5
61
102
{ACAD_REACTORS
330
47
102
}
330
47
100
AcDbScale
 70
     0
300
3/8" = 1'-0"
140
0.375
141
12.0
290
     0
  0
SCALE
  5
62
102
{ACAD_REACTORS
330
47
102
}
330
47
100
AcDbScale
 70
     0
300
1/2" = 1'-0"
140
0.5
141
12.0
290
     0
  0
SCALE
  5
63
102
{ACAD_REACTORS
330
47
102
}
330
47
100
AcDbScale
 70
     0
300
3/4" = 1'-0"
140
0.75
141
12.0
290
     0
  0
SCALE
  5
64
102
{ACAD_REACTORS
330
47
102
}
330
47
100
AcDbScale
 70
     0
300
1" = 1'-0"
140
1.0
141
12.0
290
     0
  0
SCALE
  5
65
102
{ACAD_REACTORS
330
47
102
}
330
47
100
AcDbScale
 70
     0
300
1-1/2" = 1'-0"
140
1.5
141
12.0
290
     0
  0
SCALE
  5
66
102
{ACAD_REACTORS
330
47
102
}
330
47
100
AcDbScale
 70
     0
300
3" = 1'-0"
140
3.0
141
12.0
290
     0
  0
SCALE
  5
67
102
{ACAD_REACTORS
330
47
102
}
330
47
100
AcDbScale
 70
     0
300
6" = 1'-0"
140
6.0
141
12.0
290
     0
  0
SCALE
  5
68
102
{ACAD_REACTORS
330
47
102
}
330
47
100
AcDbScale
 70
     0
300
1'-0" = 1'-0"
140
12.0
141
12.0
290
     0
  0
ENDSEC
  0
EOF
