<?xml version="1.0" encoding="utf-8"?>
<!-- Generator: Adobe Illustrator 21.1.0, SVG Export Plug-In . SVG Version: 6.00 Build 0)  -->
<svg version="1.1"
	 id="svg4136" inkscape:version="0.91 r13725" sodipodi:docname="MM.svg" xmlns:cc="http://creativecommons.org/ns#" xmlns:dc="http://purl.org/dc/elements/1.1/" xmlns:inkscape="http://www.inkscape.org/namespaces/inkscape" xmlns:osb="http://www.openswatchbook.org/uri/2009/osb" xmlns:rdf="http://www.w3.org/1999/02/22-rdf-syntax-ns#" xmlns:sodipodi="http://sodipodi.sourceforge.net/DTD/sodipodi-0.dtd" xmlns:svg="http://www.w3.org/2000/svg"
	 xmlns="http://www.w3.org/2000/svg" xmlns:xlink="http://www.w3.org/1999/xlink" x="0px" y="0px" viewBox="0 0 178 178"
	 style="enable-background:new 0 0 178 178;" xml:space="preserve">
<style type="text/css">
	.st0{fill:none;stroke:#0000E6;stroke-width:2.956985e-02;stroke-linecap:round;}
</style>
<sodipodi:namedview  bordercolor="#666666" borderopacity="1" gridtolerance="10" guidetolerance="10" id="namedview4451" inkscape:current-layer="g4155" inkscape:cx="189.15633" inkscape:cy="290.03763" inkscape:pageopacity="0" inkscape:pageshadow="2" inkscape:window-height="480" inkscape:window-maximized="0" inkscape:window-width="690" inkscape:window-x="0" inkscape:window-y="0" inkscape:zoom="2.8284271" objecttolerance="10" pagecolor="#ffffff" showgrid="false">
	</sodipodi:namedview>
<desc  id="desc4138">
	C:\Users\M\Desktop\M logos\Thinner\Thinner M.DXF - scale = 25.400000, origin = (0.000000, 0.000000), auto = False</desc>
<g id="g4155" inkscape:groupmode="layer" inkscape:label="0">
	<path id="path4157" inkscape:connector-curvature="0" class="st0" d="M177.5,62.4c-0.5-0.1-1.1-0.3-1.6-0.4c-0.5-0.1-1-0.2-1.6-0.2
		c-0.5,0-1,0-1.5,0.1c-0.2,0-0.4,0.1-0.6,0.2"/>
	<path id="path4159" inkscape:connector-curvature="0" class="st0" d="M172,62.2c-0.1,0-0.2,0.1-0.3,0.1c-0.4,0.1-0.7,0.3-1,0.6
		c-0.3,0.2-0.6,0.5-0.9,0.8"/>
	<path id="path4161" inkscape:connector-curvature="0" class="st0" d="M169.8,63.6c-0.3,0.4-0.7,0.7-1,1.1c-0.3,0.4-0.5,0.9-0.7,1.4
		c-0.2,0.6-0.3,1.1-0.5,1.8c-0.1,0.7-0.2,1.5-0.3,2.3"/>
	<path id="path4163" inkscape:connector-curvature="0" class="st0" d="M167.4,70.2c-0.1,0.6-0.1,1.2-0.1,1.8c0,0.6-0.1,1.3-0.1,1.9
		c0,0.7,0,1.4-0.1,2.1c0,0.8,0,1.5,0,2.3"/>
	<path id="path4165" inkscape:connector-curvature="0" class="st0" d="M167,127.4c0,1.1,0,2.1,0,3.2c0,0.9,0,1.9,0.1,2.8
		c0,0.8,0.1,1.6,0.2,2.4c0.1,0.7,0.1,1.3,0.3,2c0.1,0.6,0.2,1.1,0.4,1.7c0.1,0.5,0.3,1.1,0.5,1.6c0.2,0.5,0.4,1,0.6,1.5
		c0.2,0.5,0.5,0.9,0.7,1.3"/>
	<path id="path4167" inkscape:connector-curvature="0" class="st0" d="M169.8,143.8c0.5,0.7,1,1.4,1.5,2.1c0.6,0.7,1.2,1.3,1.8,1.8
		c0.7,0.6,1.4,1.1,2.1,1.5c0.8,0.5,1.6,0.8,2.3,1.2"/>
	<path id="path4169" inkscape:connector-curvature="0" class="st0" d="M146.2,139.6c0.5,0.1,1.1,0.3,1.6,0.4
		c0.5,0.1,1.1,0.2,1.6,0.2c0.5,0,1,0,1.5-0.1c0.3-0.1,0.5-0.1,0.8-0.2"/>
	<path id="path4171" inkscape:connector-curvature="0" class="st0" d="M151.7,139.9c0.1,0,0.2,0,0.3-0.1c0.4-0.1,0.7-0.3,1-0.6
		c0.3-0.2,0.6-0.5,0.9-0.8"/>
	<path id="path4173" inkscape:connector-curvature="0" class="st0" d="M154,138.4c0.2-0.3,0.5-0.6,0.7-0.9c0.2-0.3,0.4-0.7,0.6-1.1
		c0.2-0.4,0.3-0.8,0.5-1.3c0.1-0.5,0.2-1,0.3-1.5c0.1-0.6,0.2-1.2,0.3-1.8c0.1-0.7,0.1-1.5,0.2-2.3c0.1-0.9,0.1-1.8,0.1-2.7
		c0-1.1,0-2.1,0-3.2"/>
	<path id="path4175" inkscape:connector-curvature="0" class="st0" d="M104.7,106.1c0,1.1,0,2.1,0,3.2c0,0.9,0.1,1.9,0.1,2.8
		c0,0.8,0.1,1.6,0.2,2.4c0.1,0.6,0.1,1.3,0.3,2c0.1,0.6,0.2,1.1,0.4,1.7c0.1,0.5,0.3,1.1,0.5,1.6c0.2,0.5,0.4,1,0.6,1.5
		c0.2,0.5,0.5,0.9,0.7,1.4"/>
	<path id="path4177" inkscape:connector-curvature="0" class="st0" d="M107.3,122.5c0.2,0.4,0.5,0.8,0.7,1.2c0.2,0.4,0.5,0.7,0.8,1
		c0.3,0.3,0.5,0.6,0.8,0.9c0.3,0.3,0.6,0.6,0.9,0.8c0.3,0.3,0.6,0.5,0.9,0.7c0.4,0.2,0.7,0.5,1.1,0.7c0.4,0.2,0.8,0.5,1.2,0.6
		c0.4,0.2,0.9,0.4,1.3,0.6"/>
	<path id="path4179" inkscape:connector-curvature="0" class="st0" d="M92.3,121.2c0.5,0.1,1.1,0.3,1.6,0.4c0.5,0.1,1.1,0.2,1.6,0.2
		c0.5,0,1,0,1.5-0.1c0.3-0.1,0.5-0.1,0.8-0.2"/>
	<path id="path4181" inkscape:connector-curvature="0" class="st0" d="M97.8,121.5c0.1,0,0.2,0,0.3-0.1c0.4-0.1,0.7-0.3,1-0.6
		c0.3-0.2,0.6-0.5,0.9-0.8"/>
	<path id="path4183" inkscape:connector-curvature="0" class="st0" d="M100.1,120c0.2-0.3,0.5-0.6,0.7-0.9c0.2-0.3,0.4-0.7,0.6-1.1
		c0.2-0.4,0.3-0.8,0.5-1.3c0.1-0.5,0.2-1,0.3-1.5c0.1-0.6,0.2-1.2,0.3-1.8c0.1-0.7,0.1-1.5,0.2-2.3c0.1-0.9,0.1-1.8,0.1-2.7
		c0-1.1,0-2.1,0-3.2"/>
	<path id="path4185" inkscape:connector-curvature="0" class="st0" d="M102.8,56.3c0-1,0-2,0-3c0-0.9-0.1-1.9-0.1-2.8"/>
	<path id="path4187" inkscape:connector-curvature="0" class="st0" d="M102.6,50.4c0-0.8-0.1-1.6-0.2-2.4c-0.1-0.7-0.2-1.4-0.3-2
		c-0.1-0.6-0.2-1.2-0.3-1.8c-0.1-0.5-0.3-1-0.4-1.4"/>
	<path id="path4189" inkscape:connector-curvature="0" class="st0" d="M101.5,42.8c-0.2-0.6-0.4-1.1-0.7-1.7c-0.2-0.5-0.5-1-0.8-1.5
		c-0.3-0.5-0.6-0.9-0.9-1.4c-0.3-0.4-0.7-0.8-1-1.2c-0.4-0.4-0.8-0.7-1.2-1.1c-0.4-0.4-0.9-0.7-1.4-1c-0.5-0.3-1-0.6-1.5-0.9
		c-0.6-0.3-1.1-0.5-1.7-0.8"/>
	<path id="path4191" inkscape:connector-curvature="0" class="st0" d="M97.8,121.5c0.1,0,0.2,0,0.3-0.1c0.4-0.1,0.7-0.3,1-0.6
		c0.3-0.2,0.6-0.5,0.9-0.8"/>
	<path id="path4193" inkscape:connector-curvature="0" class="st0" d="M100.1,120c0.2-0.3,0.5-0.6,0.7-0.9c0.2-0.3,0.4-0.7,0.6-1.1
		c0.2-0.4,0.3-0.8,0.5-1.3c0.1-0.5,0.2-1,0.3-1.5c0.1-0.6,0.2-1.2,0.3-1.8c0.1-0.7,0.1-1.5,0.2-2.3c0.1-0.9,0.1-1.8,0.1-2.7
		c0-1,0-2.1,0-3.2"/>
	<path id="path4195" inkscape:connector-curvature="0" class="st0" d="M101.5,42.8c-0.2-0.6-0.4-1.1-0.7-1.7c-0.2-0.5-0.5-1-0.8-1.5
		c-0.3-0.5-0.6-0.9-0.9-1.4c-0.3-0.4-0.7-0.8-1-1.2c-0.4-0.4-0.8-0.7-1.2-1.1c-0.4-0.4-0.9-0.7-1.4-1c-0.5-0.3-1-0.6-1.5-0.9
		c-0.6-0.3-1.1-0.5-1.7-0.8"/>
	<path id="path4197" inkscape:connector-curvature="0" class="st0" d="M102.8,56.3c0-1,0-2,0-3c0-0.9-0.1-1.9-0.1-2.8"/>
	<path id="path4199" inkscape:connector-curvature="0" class="st0" d="M102.6,50.4c0-0.8-0.1-1.6-0.2-2.4c-0.1-0.7-0.2-1.4-0.3-2
		c-0.1-0.6-0.2-1.2-0.3-1.8c-0.1-0.5-0.3-1-0.4-1.4"/>
	<path id="path4201" inkscape:connector-curvature="0" class="st0" d="M151.7,139.9c0.1,0,0.2,0,0.3-0.1c0.4-0.1,0.7-0.3,1-0.6
		c0.3-0.2,0.6-0.5,0.9-0.8"/>
	<path id="path4203" inkscape:connector-curvature="0" class="st0" d="M154,138.4c0.2-0.3,0.5-0.6,0.7-0.9c0.2-0.3,0.4-0.7,0.6-1.1
		c0.2-0.4,0.3-0.8,0.5-1.3c0.1-0.5,0.2-1,0.3-1.5c0.1-0.6,0.2-1.2,0.3-1.8c0.1-0.7,0.1-1.5,0.2-2.3c0.1-0.9,0.1-1.8,0.1-2.7
		c0-1.1,0-2.1,0-3.2"/>
	<path id="path4205" inkscape:connector-curvature="0" class="st0" d="M177.5,62.4c-0.5-0.1-1.1-0.3-1.6-0.4c-0.5-0.1-1-0.2-1.6-0.2
		c-0.5,0-1,0-1.5,0.1c-0.2,0-0.4,0.1-0.6,0.2"/>
	<path id="path4207" inkscape:connector-curvature="0" class="st0" d="M77.6,42.8c0.2-0.6,0.4-1.1,0.7-1.7c0.2-0.5,0.5-1,0.8-1.5
		c0.3-0.5,0.6-0.9,0.9-1.4c0.3-0.4,0.7-0.8,1-1.2c0.4-0.4,0.8-0.7,1.2-1.1c0.4-0.4,0.9-0.7,1.4-1c0.5-0.3,1-0.6,1.5-0.9
		c0.6-0.3,1.1-0.5,1.7-0.8"/>
	<path id="path4209" inkscape:connector-curvature="0" class="st0" d="M76.5,50.4c0-0.8,0.1-1.6,0.2-2.4c0.1-0.7,0.2-1.4,0.3-2
		c0.1-0.6,0.2-1.2,0.3-1.8c0.1-0.5,0.3-1,0.4-1.4"/>
	<path id="path4211" inkscape:connector-curvature="0" class="st0" d="M76.3,56.3c0-1,0-2,0-3c0-0.9,0.1-1.9,0.1-2.8"/>
	<path id="path4213" inkscape:connector-curvature="0" class="st0" d="M79,120c-0.2-0.3-0.5-0.6-0.7-0.9c-0.2-0.3-0.4-0.7-0.6-1.1
		c-0.2-0.4-0.3-0.8-0.5-1.3c-0.1-0.5-0.2-1-0.3-1.5c-0.1-0.6-0.2-1.2-0.3-1.8c-0.1-0.7-0.1-1.5-0.2-2.3c-0.1-0.9-0.1-1.8-0.1-2.7
		c0-1,0-2.1,0-3.2"/>
	<path id="path4215" inkscape:connector-curvature="0" class="st0" d="M86.8,121.2c-0.5,0.1-0.9,0.2-1.4,0.3
		c-0.4,0.1-0.8,0.1-1.2,0.2c-0.4,0-0.7,0.1-1.1,0.1c-0.3,0-0.6,0-0.9-0.1c-0.3,0-0.6-0.1-0.9-0.2c-0.3-0.1-0.6-0.2-0.8-0.4
		c-0.3-0.1-0.5-0.3-0.8-0.5c-0.3-0.2-0.5-0.4-0.7-0.7"/>
	<path id="path4217" inkscape:connector-curvature="0" class="st0" d="M71.7,122.5c-0.2,0.4-0.5,0.8-0.7,1.2c-0.2,0.4-0.5,0.7-0.8,1
		c-0.3,0.3-0.5,0.6-0.8,0.9c-0.3,0.3-0.6,0.6-0.9,0.8c-0.3,0.3-0.6,0.5-0.9,0.7c-0.4,0.2-0.7,0.5-1.1,0.7c-0.4,0.2-0.8,0.5-1.2,0.6
		c-0.4,0.2-0.9,0.4-1.3,0.6"/>
	<path id="path4219" inkscape:connector-curvature="0" class="st0" d="M74.4,106.1c0,1.1,0,2.1,0,3.2c0,0.9-0.1,1.9-0.1,2.8
		c0,0.8-0.1,1.6-0.2,2.4c-0.1,0.6-0.1,1.3-0.3,2c-0.1,0.6-0.2,1.1-0.4,1.7c-0.1,0.5-0.3,1.1-0.5,1.6c-0.2,0.5-0.4,1-0.6,1.5
		c-0.2,0.5-0.5,0.9-0.7,1.4"/>
	<path id="path4221" inkscape:connector-curvature="0" class="st0" d="M25.1,138.4c-0.2-0.3-0.5-0.6-0.7-0.9
		c-0.2-0.3-0.4-0.7-0.6-1.1c-0.2-0.4-0.3-0.8-0.5-1.3c-0.1-0.5-0.2-1-0.3-1.5c-0.1-0.6-0.2-1.2-0.3-1.8c-0.1-0.7-0.1-1.5-0.2-2.3
		c-0.1-0.9-0.1-1.8-0.1-2.7c0-1.1,0-2.1,0-3.2"/>
	<path id="path4223" inkscape:connector-curvature="0" class="st0" d="M32.9,139.6c-0.5,0.1-0.9,0.2-1.4,0.3
		c-0.4,0.1-0.8,0.1-1.2,0.2c-0.4,0-0.7,0.1-1.1,0.1c-0.3,0-0.6,0-0.9-0.1c-0.6-0.1-1.2-0.3-1.7-0.6c-0.5-0.3-1-0.7-1.5-1.1"/>
	<path id="path4225" inkscape:connector-curvature="0" class="st0" d="M9.3,143.9c-0.5,0.7-1,1.4-1.5,2.1c-0.6,0.7-1.2,1.3-1.8,1.8
		c-0.7,0.6-1.4,1.1-2.1,1.5c-0.8,0.5-1.6,0.8-2.3,1.2"/>
	<path id="path4227" inkscape:connector-curvature="0" class="st0" d="M12,127.4c0,1.1,0,2.1,0,3.2c0,0.9,0,1.9-0.1,2.8
		c0,0.8-0.1,1.6-0.2,2.4c-0.1,0.7-0.1,1.3-0.3,2c-0.1,0.6-0.2,1.1-0.4,1.7c-0.1,0.5-0.3,1.1-0.5,1.6c-0.2,0.5-0.4,1-0.6,1.5
		c-0.2,0.5-0.5,0.9-0.7,1.3"/>
	<path id="path4229" inkscape:connector-curvature="0" class="st0" d="M11.7,70.2c0.1,0.6,0.1,1.2,0.1,1.8c0,0.6,0.1,1.3,0.1,1.9
		c0,0.7,0,1.4,0.1,2.1c0,0.8,0,1.5,0,2.3"/>
	<path id="path4231" inkscape:connector-curvature="0" class="st0" d="M9.3,63.6c0.3,0.4,0.7,0.7,1,1.1c0.3,0.4,0.5,0.9,0.7,1.4
		c0.2,0.6,0.3,1.1,0.5,1.8c0.1,0.7,0.2,1.5,0.3,2.3"/>
	<path id="path4233" inkscape:connector-curvature="0" class="st0" d="M1.6,62.4c0.4-0.1,0.9-0.2,1.3-0.3C3.3,62,3.7,62,4.1,61.9
		c0.4,0,0.7-0.1,1.1-0.1c0.3,0,0.6,0,0.9,0.1C6.4,62,6.7,62,7,62.1c0.3,0.1,0.5,0.2,0.8,0.3C8,62.6,8.3,62.8,8.6,63
		c0.3,0.2,0.5,0.4,0.7,0.7"/>
	<path id="path4235" inkscape:connector-curvature="0" class="st0" d="M81.1,121.4c0,0-0.1,0-0.1,0c-0.4-0.1-0.7-0.3-1-0.6
		c-0.3-0.2-0.6-0.5-0.9-0.8"/>
	<path id="path4237" inkscape:connector-curvature="0" class="st0" d="M79,120c-0.2-0.3-0.5-0.6-0.7-0.9c-0.2-0.3-0.4-0.7-0.6-1.1
		c-0.2-0.4-0.3-0.8-0.5-1.3c-0.1-0.5-0.2-1-0.3-1.5c-0.1-0.6-0.2-1.2-0.3-1.8c-0.1-0.7-0.1-1.5-0.2-2.3c-0.1-0.9-0.1-1.8-0.1-2.7
		c0-1,0-2.1,0-3.2"/>
	<path id="path4239" inkscape:connector-curvature="0" class="st0" d="M77.6,42.8c0.2-0.6,0.4-1.1,0.7-1.7c0.2-0.5,0.5-1,0.8-1.5
		c0.3-0.5,0.6-0.9,0.9-1.4c0.3-0.4,0.7-0.8,1-1.2c0.4-0.4,0.8-0.7,1.2-1.1c0.4-0.4,0.9-0.7,1.4-1c0.5-0.3,1-0.6,1.5-0.9
		c0.6-0.3,1.1-0.5,1.7-0.8"/>
	<path id="path4241" inkscape:connector-curvature="0" class="st0" d="M76.3,56.3c0-1,0-2,0-3c0-0.9,0.1-1.9,0.1-2.8"/>
	<path id="path4243" inkscape:connector-curvature="0" class="st0" d="M76.5,50.4c0-0.8,0.1-1.6,0.2-2.4c0.1-0.7,0.2-1.4,0.3-2
		c0.1-0.6,0.2-1.2,0.3-1.8c0.1-0.5,0.3-1,0.4-1.4"/>
	<path id="path4245" inkscape:connector-curvature="0" class="st0" d="M27.2,139.8c0,0-0.1,0-0.1,0c-0.4-0.1-0.7-0.3-1-0.6
		c-0.3-0.2-0.6-0.5-0.9-0.8"/>
	<path id="path4247" inkscape:connector-curvature="0" class="st0" d="M25.1,138.4c-0.2-0.3-0.5-0.6-0.7-0.9
		c-0.2-0.3-0.4-0.7-0.6-1.1c-0.2-0.4-0.3-0.8-0.5-1.3c-0.1-0.5-0.2-1-0.3-1.5c-0.1-0.6-0.2-1.2-0.3-1.8c-0.1-0.7-0.1-1.5-0.2-2.3
		c-0.1-0.9-0.1-1.8-0.1-2.7c0-1,0-2.1,0-3.2"/>
	<path id="path4249" inkscape:connector-curvature="0" class="st0" d="M1.6,62.4c0.5-0.1,1.1-0.3,1.6-0.4c0.5-0.1,1-0.2,1.6-0.2
		c0.5,0,1,0,1.5,0.1c0.2,0,0.4,0.1,0.6,0.2"/>
	<path id="path4251" inkscape:connector-curvature="0" class="st0" d="M167,78.2v49.1"/>
	<path id="path4253" inkscape:connector-curvature="0" class="st0" d="M177.5,150.4v1.3"/>
	<path id="path4255" inkscape:connector-curvature="0" class="st0" d="M177.5,151.6l-31.3-10.7"/>
	<path id="path4257" inkscape:connector-curvature="0" class="st0" d="M146.2,140.9v-1.3"/>
	<path id="path4259" inkscape:connector-curvature="0" class="st0" d="M156.6,123.8V64.2"/>
	<path id="path4261" inkscape:connector-curvature="0" class="st0" d="M156.6,64.2l-25.5,71.5"/>
	<path id="path4263" inkscape:connector-curvature="0" class="st0" d="M131.1,135.7l-1-0.4"/>
	<path id="path4265" inkscape:connector-curvature="0" class="st0" d="M130.1,135.4l-25.4-87.7"/>
	<path id="path4267" inkscape:connector-curvature="0" class="st0" d="M104.7,47.6v58.4"/>
	<path id="path4269" inkscape:connector-curvature="0" class="st0" d="M115.1,129v1.3"/>
	<path id="path4271" inkscape:connector-curvature="0" class="st0" d="M115.1,130.3l-22.8-7.8"/>
	<path id="path4273" inkscape:connector-curvature="0" class="st0" d="M92.3,122.5v-1.3"/>
	<path id="path4275" inkscape:connector-curvature="0" class="st0" d="M102.8,105.4V56.3"/>
	<path id="path4277" inkscape:connector-curvature="0" class="st0" d="M92.3,33.3V32"/>
	<path id="path4279" inkscape:connector-curvature="0" class="st0" d="M92.3,32l21.5,7.3"/>
	<path id="path4281" inkscape:connector-curvature="0" class="st0" d="M113.8,39.4l21.3,78.3"/>
	<path id="path4283" inkscape:connector-curvature="0" class="st0" d="M135.1,117.7l22.1-63.4"/>
	<path id="path4285" inkscape:connector-curvature="0" class="st0" d="M157.2,54.2l20.4,7"/>
	<path id="path4287" inkscape:connector-curvature="0" class="st0" d="M177.5,61.2v1.3"/>
	<path id="path4289" inkscape:connector-curvature="0" class="st0" d="M92.3,122.5L92.3,122.5"/>
	<path id="path4291" inkscape:connector-curvature="0" class="st0" d="M115.1,130.3L115.1,130.3"/>
	<path id="path4293" inkscape:connector-curvature="0" class="st0" d="M115.1,130.3l-22.8-7.8"/>
	<path id="path4295" inkscape:connector-curvature="0" class="st0" d="M92.3,121.2L92.3,121.2"/>
	<path id="path4297" inkscape:connector-curvature="0" class="st0" d="M92.3,122.5v-1.3"/>
	<path id="path4299" inkscape:connector-curvature="0" class="st0" d="M100.1,120L100.1,120"/>
	<path id="path4301" inkscape:connector-curvature="0" class="st0" d="M102.8,105.4L102.8,105.4"/>
	<path id="path4303" inkscape:connector-curvature="0" class="st0" d="M130.1,135.4L130.1,135.4"/>
	<path id="path4305" inkscape:connector-curvature="0" class="st0" d="M130.1,135.4l-25.4-87.7"/>
	<path id="path4307" inkscape:connector-curvature="0" class="st0" d="M102.8,56.3L102.8,56.3"/>
	<path id="path4309" inkscape:connector-curvature="0" class="st0" d="M102.8,105.4V56.3"/>
	<path id="path4311" inkscape:connector-curvature="0" class="st0" d="M92.3,33.3L92.3,33.3"/>
	<path id="path4313" inkscape:connector-curvature="0" class="st0" d="M101.5,42.8L101.5,42.8"/>
	<path id="path4315" inkscape:connector-curvature="0" class="st0" d="M92.3,32L92.3,32"/>
	<path id="path4317" inkscape:connector-curvature="0" class="st0" d="M92.3,33.3V32"/>
	<path id="path4319" inkscape:connector-curvature="0" class="st0" d="M102.6,50.4L102.6,50.4"/>
	<path id="path4321" inkscape:connector-curvature="0" class="st0" d="M131.1,135.7L131.1,135.7"/>
	<path id="path4323" inkscape:connector-curvature="0" class="st0" d="M131.1,135.7l-1-0.4"/>
	<path id="path4325" inkscape:connector-curvature="0" class="st0" d="M157.2,54.2L157.2,54.2"/>
	<path id="path4327" inkscape:connector-curvature="0" class="st0" d="M135.1,117.6l22.1-63.4"/>
	<path id="path4329" inkscape:connector-curvature="0" class="st0" d="M146.2,139.6L146.2,139.6"/>
	<path id="path4331" inkscape:connector-curvature="0" class="st0" d="M146.2,140.9L146.2,140.9"/>
	<path id="path4333" inkscape:connector-curvature="0" class="st0" d="M146.2,140.9v-1.3"/>
	<path id="path4335" inkscape:connector-curvature="0" class="st0" d="M177.5,151.6L177.5,151.6"/>
	<path id="path4337" inkscape:connector-curvature="0" class="st0" d="M177.5,151.6l-31.3-10.7"/>
	<path id="path4339" inkscape:connector-curvature="0" class="st0" d="M154,138.4L154,138.4"/>
	<path id="path4341" inkscape:connector-curvature="0" class="st0" d="M156.6,123.8L156.6,123.8"/>
	<path id="path4343" inkscape:connector-curvature="0" class="st0" d="M156.6,123.8V64.2"/>
	<path id="path4345" inkscape:connector-curvature="0" class="st0" d="M177.5,62.4L177.5,62.4"/>
	<path id="path4347" inkscape:connector-curvature="0" class="st0" d="M86.8,122.5L86.8,122.5"/>
	<path id="path4349" inkscape:connector-curvature="0" class="st0" d="M64,130.3l22.8-7.8"/>
	<path id="path4351" inkscape:connector-curvature="0" class="st0" d="M64,130.3L64,130.3"/>
	<path id="path4353" inkscape:connector-curvature="0" class="st0" d="M64,130.3l22.8-7.8"/>
	<path id="path4355" inkscape:connector-curvature="0" class="st0" d="M86.8,121.2L86.8,121.2"/>
	<path id="path4357" inkscape:connector-curvature="0" class="st0" d="M86.8,122.5v-1.3"/>
	<path id="path4359" inkscape:connector-curvature="0" class="st0" d="M86.8,122.5v-1.3"/>
	<path id="path4361" inkscape:connector-curvature="0" class="st0" d="M21.9,54.2l-20.4,7"/>
	<path id="path4363" inkscape:connector-curvature="0" class="st0" d="M44,117.7L21.9,54.2"/>
	<path id="path4365" inkscape:connector-curvature="0" class="st0" d="M65.3,39.4L44,117.7"/>
	<path id="path4367" inkscape:connector-curvature="0" class="st0" d="M86.8,32l-21.5,7.3"/>
	<path id="path4369" inkscape:connector-curvature="0" class="st0" d="M86.8,33.3V32"/>
	<path id="path4371" inkscape:connector-curvature="0" class="st0" d="M76.3,105.4V56.3"/>
	<path id="path4373" inkscape:connector-curvature="0" class="st0" d="M64,129v1.3"/>
	<path id="path4375" inkscape:connector-curvature="0" class="st0" d="M74.4,47.6v58.4"/>
	<path id="path4377" inkscape:connector-curvature="0" class="st0" d="M49,135.4l25.4-87.7"/>
	<path id="path4379" inkscape:connector-curvature="0" class="st0" d="M48,135.7l1-0.4"/>
	<path id="path4381" inkscape:connector-curvature="0" class="st0" d="M22.4,64.2L48,135.7"/>
	<path id="path4383" inkscape:connector-curvature="0" class="st0" d="M22.4,123.8V64.2"/>
	<path id="path4385" inkscape:connector-curvature="0" class="st0" d="M32.9,140.9v-1.3"/>
	<path id="path4387" inkscape:connector-curvature="0" class="st0" d="M1.6,151.6l31.3-10.7"/>
	<path id="path4389" inkscape:connector-curvature="0" class="st0" d="M1.6,150.4v1.3"/>
	<path id="path4391" inkscape:connector-curvature="0" class="st0" d="M12,78.2v49.1"/>
	<path id="path4393" inkscape:connector-curvature="0" class="st0" d="M1.6,61.2v1.3"/>
	<path id="path4395" inkscape:connector-curvature="0" class="st0" d="M79,120L79,120"/>
	<path id="path4397" inkscape:connector-curvature="0" class="st0" d="M76.3,105.4L76.3,105.4"/>
	<path id="path4399" inkscape:connector-curvature="0" class="st0" d="M49,135.4L49,135.4"/>
	<path id="path4401" inkscape:connector-curvature="0" class="st0" d="M49,135.4l25.4-87.7"/>
	<path id="path4403" inkscape:connector-curvature="0" class="st0" d="M76.3,56.3L76.3,56.3"/>
	<path id="path4405" inkscape:connector-curvature="0" class="st0" d="M76.3,105.4V56.3"/>
	<path id="path4407" inkscape:connector-curvature="0" class="st0" d="M86.8,33.3L86.8,33.3"/>
	<path id="path4409" inkscape:connector-curvature="0" class="st0" d="M77.6,42.8L77.6,42.8"/>
	<path id="path4411" inkscape:connector-curvature="0" class="st0" d="M86.8,32L86.8,32"/>
	<path id="path4413" inkscape:connector-curvature="0" class="st0" d="M86.8,33.3V32"/>
	<path id="path4415" inkscape:connector-curvature="0" class="st0" d="M76.5,50.4L76.5,50.4"/>
	<path id="path4417" inkscape:connector-curvature="0" class="st0" d="M48,135.7L48,135.7"/>
	<path id="path4419" inkscape:connector-curvature="0" class="st0" d="M48,135.7l1-0.4"/>
	<path id="path4421" inkscape:connector-curvature="0" class="st0" d="M21.9,54.2L21.9,54.2"/>
	<path id="path4423" inkscape:connector-curvature="0" class="st0" d="M44,117.6L21.9,54.2"/>
	<path id="path4425" inkscape:connector-curvature="0" class="st0" d="M32.9,140.9L32.9,140.9"/>
	<path id="path4427" inkscape:connector-curvature="0" class="st0" d="M1.6,151.6L1.6,151.6"/>
	<path id="path4429" inkscape:connector-curvature="0" class="st0" d="M1.6,151.6l31.3-10.7"/>
	<path id="path4431" inkscape:connector-curvature="0" class="st0" d="M32.9,139.6L32.9,139.6"/>
	<path id="path4433" inkscape:connector-curvature="0" class="st0" d="M32.9,140.9v-1.3"/>
	<path id="path4435" inkscape:connector-curvature="0" class="st0" d="M25.1,138.4L25.1,138.4"/>
	<path id="path4437" inkscape:connector-curvature="0" class="st0" d="M22.4,123.8L22.4,123.8"/>
	<path id="path4439" inkscape:connector-curvature="0" class="st0" d="M22.4,123.8V64.2"/>
	<path id="path4441" inkscape:connector-curvature="0" class="st0" d="M1.6,62.4L1.6,62.4"/>
	<path id="path6331" inkscape:connector-curvature="0" class="st0" d="M-179-1290.8"/>
</g>
</svg>
